<?xml version="1.0" standalone="no"?>
<!DOCTYPE svg PUBLIC "-//W3C//DTD SVG 20010904//EN"
 "http://www.w3.org/TR/2001/REC-SVG-20010904/DTD/svg10.dtd">
<svg version="1.0" xmlns="http://www.w3.org/2000/svg"
 width="2048.000000pt" height="2048.000000pt" viewBox="0 0 2048.000000 2048.000000"
 preserveAspectRatio="xMidYMid meet">
<metadata>
Created by potrace 1.14, written by Peter Selinger 2001-2017
</metadata>
<g transform="translate(0.000000,2048.000000) scale(0.100000,-0.100000)"
fill="#000000" stroke="none">
<path d="M0 17968 l0 -2513 24 30 c21 25 28 28 43 19 42 -26 13 -80 -39 -70
l-28 5 0 -3027 c0 -3016 0 -3027 20 -3040 27 -16 27 -62 0 -69 -20 -5 -20 -14
-20 -1228 0 -1078 2 -1224 15 -1229 19 -7 19 -35 0 -42 -13 -5 -15 -49 -15
-306 l0 -300 26 17 c23 15 28 15 41 3 8 -9 11 -22 7 -32 -5 -14 -14 -17 -40
-13 l-34 6 0 -3090 0 -3089 10240 0 10240 0 0 8969 c0 8961 0 8970 -20 8976
-26 8 -26 41 0 48 20 5 20 14 20 1246 l0 1241 -4795 0 c-2637 0 -4795 -3
-4795 -6 0 -4 13 -21 29 -40 53 -60 51 -163 -4 -184 -52 -20 -155 52 -195 135
-24 49 -20 65 14 65 12 0 31 7 42 15 17 13 -64 14 -688 15 l-708 0 0 -35 c0
-48 -17 -80 -54 -100 -31 -17 -34 -17 -74 4 -45 23 -62 51 -62 102 l0 29 -112
0 -113 0 -17 -31 c-22 -38 -57 -37 -76 4 l-13 27 -4430 0 -4429 0 0 -2512z
m10511 2393 c31 -30 39 -46 39 -74 0 -42 -35 -88 -79 -107 -42 -17 -95 10
-122 63 -26 50 -19 80 27 124 49 46 85 44 135 -6z m-2033 -2 c34 -12 62 -47
62 -79 0 -27 -52 -80 -79 -80 -11 0 -36 14 -56 31 -53 47 -46 110 15 132 22 8
24 8 58 -4z m3095 -6 c5 -3 13 -17 18 -31 34 -90 -68 -135 -130 -56 -47 60 -9
111 74 97 17 -3 34 -8 38 -10z m-11188 -19 c32 -15 65 -64 65 -97 0 -8 7 -20
15 -27 20 -17 19 -60 -2 -76 -20 -15 -63 -19 -63 -6 0 5 -6 16 -13 26 -12 17
-15 17 -59 -5 l-46 -22 -35 22 c-48 29 -54 53 -26 99 33 55 51 73 84 88 39 17
41 17 80 -2z m3255 -104 c24 -24 25 -52 4 -85 -32 -49 -124 -19 -124 40 0 34
34 65 70 65 17 0 39 -9 50 -20z m-1125 -107 c12 -20 28 -32 42 -33 48 0 73
-57 54 -121 -9 -28 -20 -43 -39 -51 -53 -21 -80 -14 -128 33 -44 43 -46 46
-42 95 5 62 40 117 71 112 12 -2 31 -17 42 -35z m15875 -26 c49 -26 76 -58 85
-103 8 -41 -32 -91 -79 -100 -48 -9 -131 29 -162 75 -28 42 -30 72 -7 107 32
49 95 57 163 21z m-9430 -126 c48 -38 116 -128 129 -171 9 -30 8 -39 -8 -60
-21 -29 -69 -45 -105 -36 -41 10 -92 62 -116 118 -26 61 -32 164 -9 179 22 15
70 1 109 -30z m9792 -51 c28 -29 30 -35 26 -87 -4 -47 -10 -60 -34 -80 -16
-12 -42 -23 -57 -23 -37 0 -84 25 -92 49 -13 43 25 151 58 165 34 13 70 5 99
-24z m-6362 -29 c13 -32 7 -51 -15 -51 -20 0 -47 44 -39 64 10 26 40 19 54
-13z m4353 7 c50 -26 130 -105 153 -150 13 -26 24 -49 24 -52 0 -2 -16 -14
-35 -26 -47 -29 -74 -21 -138 40 -35 34 -60 50 -78 50 -14 0 -34 9 -43 19 -17
18 -16 21 6 59 12 23 36 47 53 56 38 18 32 18 58 4z m-6381 -25 c42 -38 5 -89
-41 -56 -20 14 -28 52 -14 66 11 12 36 8 55 -10z m-9316 -29 c9 -34 -6 -78
-28 -82 -19 -4 -48 45 -40 68 15 47 58 55 68 14z m18964 16 c0 -5 -4 -10 -9
-10 -6 0 -13 5 -16 10 -3 6 1 10 9 10 9 0 16 -4 16 -10z m-17529 -66 c14 -7
31 -20 38 -28 8 -9 23 -16 35 -16 33 0 86 -37 86 -60 0 -25 -35 -27 -69 -4
-23 16 -26 16 -79 -12 -1 -1 5 -16 15 -33 18 -32 18 -32 -10 -57 -15 -13 -38
-24 -50 -24 -34 0 -118 44 -155 80 -44 44 -49 71 -22 115 12 19 22 35 23 35 1
0 20 7 42 15 43 16 103 12 146 -11z m-681 -54 c15 -28 9 -71 -13 -84 -13 -8
-24 -7 -45 4 -30 17 -39 48 -22 79 15 28 65 28 80 1z m14184 -11 c-3 -5 -10
-7 -15 -3 -5 3 -7 10 -3 15 3 5 10 7 15 3 5 -3 7 -10 3 -15z m-4108 -35 c13
-52 -31 -95 -64 -62 -17 17 -15 32 9 62 26 33 47 33 55 0z m-2223 -238 c44
-25 35 -24 392 -41 55 -3 138 -7 185 -10 504 -28 568 -34 760 -66 63 -11 142
-24 175 -29 33 -6 78 -14 100 -20 227 -54 303 -73 320 -81 11 -5 43 -16 70
-23 28 -8 95 -28 150 -46 55 -17 107 -33 115 -35 8 -1 62 -19 120 -38 215 -73
315 -109 328 -119 7 -6 15 -8 18 -5 3 3 24 -3 47 -13 23 -10 60 -26 82 -36 22
-9 42 -18 45 -19 3 -1 19 -7 35 -14 17 -7 46 -19 65 -26 45 -16 125 -52 172
-77 21 -10 42 -16 48 -13 6 3 13 0 16 -8 3 -8 23 -20 45 -27 21 -7 39 -17 39
-22 0 -4 3 -7 8 -6 4 1 24 -6 46 -15 21 -9 44 -17 50 -17 7 0 21 -7 32 -15 10
-8 26 -15 35 -15 9 0 22 -6 28 -14 7 -8 26 -18 42 -21 16 -4 29 -11 29 -16 0
-6 14 -15 30 -20 17 -6 30 -15 30 -21 0 -5 5 -6 10 -3 6 3 10 2 10 -2 0 -9 68
-43 84 -43 8 0 166 -108 176 -120 3 -3 23 -17 45 -30 47 -29 58 -38 120 -96
26 -24 56 -46 67 -50 11 -3 17 -8 14 -11 -6 -6 45 -45 84 -65 28 -14 31 -17
76 -53 18 -14 39 -25 48 -25 9 0 16 -4 16 -8 0 -9 90 -77 102 -77 4 0 16 -10
27 -22 11 -12 41 -36 66 -53 25 -17 45 -34 45 -38 0 -4 23 -22 50 -40 28 -18
50 -37 50 -42 0 -6 4 -10 10 -10 5 0 51 -41 102 -91 51 -50 122 -116 158 -147
35 -32 80 -75 100 -96 19 -21 41 -44 48 -50 32 -28 132 -131 132 -137 0 -4 17
-25 38 -48 20 -22 46 -52 57 -66 11 -14 29 -37 40 -50 11 -13 30 -35 43 -50
12 -15 22 -33 22 -40 0 -8 14 -29 31 -47 48 -52 80 -96 83 -113 1 -9 7 -20 12
-23 5 -4 16 -20 24 -37 17 -34 15 -32 75 -107 25 -31 45 -60 45 -65 0 -4 21
-30 45 -57 25 -27 45 -54 45 -61 0 -7 9 -20 20 -30 11 -10 20 -22 20 -27 0 -4
8 -17 18 -27 35 -39 47 -56 42 -58 -3 -2 7 -15 21 -30 14 -16 32 -45 39 -65 8
-21 17 -38 21 -38 4 0 10 -15 13 -34 4 -19 10 -36 14 -38 4 -2 17 -23 29 -48
13 -25 36 -67 52 -95 56 -96 101 -184 101 -197 0 -7 6 -25 14 -39 7 -14 16
-38 20 -53 4 -16 29 -75 56 -131 28 -57 50 -106 50 -109 0 -3 16 -41 36 -84
20 -42 40 -86 44 -97 5 -11 24 -54 43 -95 20 -41 41 -93 48 -115 6 -22 15 -49
20 -60 4 -11 13 -40 20 -65 6 -25 15 -54 20 -65 5 -11 20 -63 34 -115 13 -52
29 -111 35 -130 15 -49 110 -486 116 -535 3 -22 10 -54 15 -71 5 -18 9 -36 7
-40 -1 -5 3 -40 10 -79 11 -69 48 -386 57 -495 3 -30 7 -82 10 -115 27 -324
29 -793 5 -1060 -6 -60 -13 -144 -16 -185 -3 -41 -9 -95 -14 -120 -5 -25 -12
-77 -15 -116 -6 -66 -58 -384 -90 -549 -37 -191 -76 -353 -121 -500 -20 -66
-38 -133 -41 -150 -3 -16 -10 -35 -15 -42 -5 -6 -18 -38 -28 -70 -23 -74 -58
-172 -70 -198 -5 -11 -37 -87 -70 -169 -34 -82 -87 -204 -119 -270 -32 -67
-61 -131 -65 -143 -4 -13 -11 -23 -16 -23 -4 0 -11 -12 -15 -27 -3 -16 -17
-45 -31 -65 -13 -21 -24 -44 -24 -52 0 -8 -4 -17 -10 -21 -5 -3 -22 -31 -38
-63 -16 -31 -39 -73 -50 -92 -11 -19 -33 -57 -47 -84 -43 -79 -49 -89 -68
-110 -9 -11 -17 -25 -17 -32 0 -6 -7 -18 -16 -25 -9 -7 -20 -22 -25 -34 -14
-31 -22 -44 -114 -175 -22 -30 -58 -84 -81 -120 -23 -36 -49 -74 -58 -85 -9
-11 -35 -45 -58 -75 -24 -30 -55 -68 -70 -85 -15 -16 -28 -33 -28 -36 0 -12
-111 -152 -190 -239 -42 -47 -92 -103 -111 -125 -19 -21 -49 -55 -66 -74 -18
-19 -33 -38 -33 -43 0 -5 -4 -6 -10 -3 -5 3 -10 2 -10 -3 0 -5 -62 -72 -139
-148 -135 -135 -194 -192 -416 -399 -59 -55 -126 -119 -149 -142 -22 -24 -46
-43 -52 -43 -6 0 -23 -11 -38 -25 -15 -14 -33 -25 -39 -25 -7 0 -30 -16 -50
-35 -20 -19 -42 -35 -48 -35 -6 0 -29 -12 -52 -27 -70 -46 -81 -53 -107 -66
-14 -7 -43 -24 -65 -38 -22 -14 -76 -47 -120 -72 -44 -25 -85 -50 -91 -54 -19
-15 -49 -33 -104 -63 -30 -17 -73 -43 -94 -59 -22 -16 -56 -37 -75 -47 -20
-10 -47 -26 -60 -36 -13 -10 -32 -18 -42 -18 -9 0 -19 -4 -21 -9 -3 -9 -360
-191 -453 -231 -60 -25 -71 -30 -157 -69 -37 -17 -75 -32 -85 -34 -10 -2 -34
-11 -53 -20 -54 -26 -220 -87 -236 -87 -20 0 -86 -32 -106 -53 -10 -9 -25 -17
-33 -17 -8 0 -15 -6 -15 -12 0 -7 -7 -3 -15 9 -14 20 -14 30 2 105 21 97 24
284 6 343 -7 23 -30 69 -50 103 -57 94 -266 325 -373 412 -150 123 -182 163
-230 288 -27 72 -25 107 11 193 115 275 173 526 199 860 28 357 -43 490 -440
823 -80 66 -154 129 -165 139 -56 52 -197 135 -264 157 -70 22 -78 23 -150 11
-87 -15 -212 -58 -280 -97 -142 -82 -325 -234 -386 -319 -64 -91 -216 -396
-252 -510 -7 -19 -7 -122 -3 -275 6 -201 12 -259 29 -325 26 -97 86 -226 149
-319 47 -68 47 -69 47 -150 0 -80 -21 -180 -67 -325 -19 -60 -32 -76 -149
-197 -203 -209 -296 -368 -346 -587 -43 -191 -37 -257 56 -552 73 -232 101
-357 101 -447 0 -82 -32 -266 -81 -459 -63 -251 -72 -354 -43 -499 8 -41 25
-154 39 -251 13 -97 27 -187 30 -201 6 -22 -5 -91 -21 -131 -12 -33 13 -16 46
31 40 55 132 207 165 272 27 54 158 483 214 701 47 187 68 326 77 523 7 145 8
148 25 125 18 -24 36 -67 89 -209 32 -87 55 -242 45 -307 -16 -109 -171 -437
-309 -657 -71 -112 -206 -334 -242 -397 -6 -11 -20 -30 -31 -42 -26 -30 -99
-145 -201 -317 -237 -401 -442 -605 -764 -759 -161 -76 -267 -107 -476 -136
-143 -20 -319 -64 -396 -100 -97 -44 -183 -65 -150 -36 11 10 238 101 279 112
17 4 116 19 220 34 270 36 349 60 554 166 119 62 159 86 203 124 19 17 48 39
64 50 63 44 221 225 197 225 -4 0 0 6 9 13 9 6 32 37 52 69 27 42 31 56 19 54
-9 -2 -20 -11 -24 -22 -7 -18 -8 -18 -9 1 -1 18 -2 17 -11 -4 -5 -14 -7 -31
-5 -38 3 -8 -2 -13 -14 -13 -11 0 -25 -9 -32 -20 -7 -11 -19 -20 -26 -20 -8 0
-10 -5 -6 -13 4 -6 4 -9 -1 -5 -4 4 -15 2 -23 -5 -13 -10 -15 -9 -9 6 8 22 -1
47 -18 47 -8 0 -17 -9 -20 -20 -3 -11 -11 -20 -16 -20 -5 0 -9 -7 -9 -15 0 -8
-4 -15 -10 -15 -5 0 -10 7 -10 15 0 18 -12 19 -28 3 -9 -9 -12 -9 -12 0 0 7 5
12 10 12 6 0 10 7 10 15 0 9 9 15 25 15 22 0 25 4 25 36 0 27 -4 35 -14 31 -7
-3 -18 -1 -24 5 -16 16 -42 2 -42 -22 0 -35 -36 -25 -44 13 -7 30 -8 31 -21
13 -8 -11 -15 -14 -15 -8 0 7 -4 12 -10 12 -5 0 -10 -7 -10 -15 0 -19 -16 -19
-24 0 -7 19 -26 19 -26 0 0 -10 -10 -15 -30 -15 -27 0 -30 2 -20 19 13 25 13
68 0 76 -5 3 -10 1 -10 -4 0 -6 -6 -11 -14 -11 -16 0 -30 -59 -19 -86 6 -16 4
-17 -9 -6 -8 7 -18 31 -22 53 -5 29 -12 43 -26 46 -11 3 -20 9 -20 14 0 15
-40 10 -46 -6 -9 -22 -26 -18 -62 15 -18 16 -44 30 -57 30 -23 0 -39 14 -40
35 0 10 -8 15 -26 15 -5 0 -8 -4 -5 -9 10 -16 -5 -41 -25 -41 -27 0 -24 20 4
21 16 1 17 3 5 6 -10 2 -20 18 -24 39 -3 19 -12 34 -20 34 -7 0 -11 -6 -8 -14
3 -8 1 -17 -5 -21 -6 -3 -11 -1 -11 6 0 10 -3 10 -12 1 -18 -18 -36 -15 -74
15 -34 25 -84 38 -84 21 0 -4 -7 -8 -15 -8 -8 0 -15 9 -15 19 0 28 -20 37 -27
12 -4 -15 -13 -21 -34 -21 -15 0 -31 5 -34 10 -4 6 7 10 24 10 17 0 31 5 31
11 0 6 -7 8 -16 5 -21 -8 -64 4 -64 18 0 6 -9 17 -21 24 -16 11 -24 11 -36 1
-9 -8 -17 -9 -21 -3 -13 19 -106 36 -135 25 -20 -8 -27 -7 -27 1 0 7 -17 27
-37 44 -33 29 -40 31 -54 18 -14 -13 -17 -10 -28 26 -7 23 -18 40 -26 40 -8 0
-15 -4 -15 -10 0 -5 -7 -10 -15 -10 -8 0 -19 17 -26 42 -10 40 -12 41 -25 23
-8 -10 -14 -15 -14 -11 0 5 -7 2 -17 -5 -9 -8 -18 -10 -20 -4 -2 6 -8 17 -14
25 -8 11 -12 12 -16 2 -2 -6 -9 -10 -14 -6 -5 3 -9 0 -9 -6 0 -6 -4 -8 -10 -5
-5 3 -10 14 -10 24 0 23 -26 46 -34 32 -4 -6 -13 -8 -20 -5 -8 3 -13 0 -13 -8
1 -7 -2 -15 -8 -18 -5 -3 -11 6 -13 20 -6 49 -9 52 -43 35 -30 -16 -32 -16
-55 6 -13 12 -24 27 -24 34 0 7 -19 9 -60 5 -52 -5 -62 -3 -73 14 -7 10 -34
24 -59 31 -38 9 -47 9 -55 -4 -12 -18 -33 -6 -33 20 0 10 -7 19 -15 19 -8 0
-15 4 -15 10 0 5 -7 7 -15 4 -8 -4 -15 -13 -15 -21 0 -20 -19 -6 -30 23 -5 13
-17 24 -25 24 -9 0 -20 10 -26 22 -7 18 -8 13 -5 -22 4 -34 3 -39 -4 -22 -12
28 -28 28 -40 -1 l-9 -22 0 22 c-1 13 -7 22 -13 20 -8 -1 -14 10 -16 26 -3 22
-7 27 -20 22 -21 -8 -18 -8 -72 -5 -25 1 -37 4 -27 7 12 3 17 12 15 26 -5 33
-27 32 -34 -2 -7 -33 -34 -43 -34 -13 0 26 -11 34 -27 21 -10 -9 -13 -8 -13 5
0 10 -5 14 -11 10 -6 -3 -9 -18 -6 -33 l5 -26 -19 24 c-13 16 -16 28 -10 39 7
12 3 21 -11 34 -28 24 -31 23 -24 -9 4 -16 3 -23 -1 -18 -10 12 -53 13 -70 2
-9 -6 -13 0 -14 20 -1 17 -3 21 -6 11 -5 -22 -33 -24 -33 -3 0 21 -28 19 -33
-2 -3 -11 -5 -6 -6 11 -1 25 -3 27 -17 15 -13 -10 -17 -10 -25 2 -5 8 -9 20
-9 27 0 6 -3 12 -7 12 -5 0 -19 3 -33 5 -22 5 -22 4 -5 -4 16 -8 10 -10 -27
-10 -38 -1 -46 2 -42 14 4 8 10 15 15 15 15 0 10 27 -6 34 -11 4 -15 -1 -15
-19 0 -13 -4 -27 -10 -30 -6 -4 -10 10 -10 34 0 23 -4 41 -10 41 -5 0 -10 -18
-10 -40 0 -54 -20 -51 -21 3 0 23 -3 36 -6 30 -6 -15 -33 -17 -33 -3 0 5 -11
12 -25 16 -14 3 -25 12 -25 19 0 7 -11 16 -25 19 -14 4 -25 13 -25 21 0 8 -7
15 -15 15 -8 0 -15 7 -15 15 0 19 -14 19 -34 0 -17 -17 -62 -20 -71 -5 -3 6
-17 10 -31 10 -13 0 -24 5 -24 10 0 6 -11 15 -25 20 -14 5 -25 14 -25 20 0 16
-27 12 -34 -5 -7 -19 -36 -19 -36 0 0 17 -35 21 -45 5 -11 -18 -26 -10 -36 20
-7 18 -15 27 -22 23 -23 -14 -63 -9 -99 14 -34 21 -39 21 -65 8 -37 -20 -43
-19 -43 6 0 29 -18 59 -35 59 -8 0 -15 5 -15 11 0 8 -4 8 -14 0 -12 -10 -17
-8 -27 10 -11 22 -12 22 -25 4 -8 -11 -14 -13 -14 -6 0 7 -5 9 -12 5 -6 -4
-21 5 -35 22 -19 25 -25 27 -42 17 -22 -14 -31 -8 -31 23 0 28 -19 42 -31 23
-7 -11 -9 -11 -9 -1 0 11 -20 13 -87 11 -89 -3 -133 10 -133 38 0 18 -21 16
-35 -4 -11 -15 -14 -14 -27 12 l-16 29 -7 -34 c-5 -23 -4 -35 4 -38 6 -2 11
-8 11 -14 0 -6 -6 -6 -15 2 -8 7 -15 18 -15 26 0 21 -39 36 -75 30 -46 -9 -67
1 -54 25 13 26 2 59 -19 58 -11 0 -12 -3 -4 -6 14 -6 16 -43 2 -43 -5 0 -10 3
-10 8 0 4 -17 8 -37 9 -21 1 -39 7 -41 13 -2 5 -8 7 -14 4 -5 -3 -15 2 -23 12
-11 15 -15 16 -29 5 -13 -11 -20 -8 -44 18 -22 24 -31 28 -40 19 -9 -9 -12 -9
-12 2 0 27 -81 53 -95 30 -11 -18 -25 -11 -25 13 0 58 -9 67 -66 67 -41 0 -54
4 -54 15 0 8 -9 15 -20 15 -13 0 -18 5 -13 16 3 8 12 13 19 10 8 -3 14 -2 14
2 0 19 59 5 78 -18 17 -20 23 -23 33 -13 11 11 9 13 -9 13 -12 0 -22 5 -22 11
0 5 5 7 10 4 15 -9 40 14 33 31 -3 9 1 14 11 14 9 0 16 -6 15 -12 -1 -7 -1
-22 0 -33 1 -17 3 -18 11 -5 5 8 10 11 10 5 0 -24 23 18 24 44 1 28 -1 29 -39
30 -101 1 -113 2 -119 16 -2 8 -13 14 -23 13 -10 0 -39 3 -65 7 -32 5 -48 4
-48 -3 0 -6 -13 -10 -30 -10 -16 1 -30 6 -30 12 0 13 -7 14 -91 19 -30 2 -60
6 -66 10 -6 4 -34 0 -63 -7 -33 -9 -63 -11 -81 -6 -16 5 -29 6 -29 2 0 -4 -7
1 -15 12 -7 10 -18 15 -24 12 -6 -4 -19 -1 -30 6 -16 10 -23 10 -33 0 -16 -16
-45 -15 -51 1 -5 16 3 47 13 47 5 0 16 8 26 17 11 12 36 18 73 20 150 6 270
14 421 28 131 12 390 16 1250 19 597 2 1159 6 1250 10 91 3 431 9 755 12 325
4 610 8 635 10 25 1 407 5 850 9 443 3 841 9 885 13 73 6 80 9 83 30 7 51 -77
352 -99 352 -5 0 -9 8 -9 18 -1 21 -39 93 -40 73 0 -11 -11 -12 -47 -7 -26 3
-61 10 -78 15 -16 6 -57 16 -90 25 -175 43 -316 84 -475 138 -47 16 -106 36
-132 44 -27 8 -48 19 -48 25 0 5 -6 9 -12 7 -19 -3 -126 31 -133 42 -3 6 -21
10 -40 10 -19 0 -38 6 -42 13 -4 8 -29 19 -56 27 -26 7 -50 17 -53 21 -3 5
-14 9 -25 9 -10 0 -19 5 -19 11 0 5 -8 9 -18 7 -18 -3 -53 11 -187 73 -33 15
-114 48 -180 74 -119 47 -216 88 -245 106 -8 5 -26 14 -40 19 -14 6 -32 15
-40 20 -15 10 -39 22 -95 45 -63 27 -80 35 -95 44 -8 6 -28 17 -45 25 -113 57
-114 58 -218 129 -31 20 -58 37 -62 37 -3 0 -11 4 -18 10 -57 46 -76 60 -85
60 -6 0 -17 6 -24 13 -16 14 -95 67 -102 67 -3 0 -37 21 -77 47 -39 27 -85 57
-101 67 -17 11 -42 30 -57 44 -14 13 -39 31 -56 39 -16 9 -35 22 -43 29 -7 8
-16 14 -20 14 -4 0 -27 19 -52 41 -93 85 -125 111 -152 127 -15 9 -28 20 -28
24 0 4 -4 8 -10 8 -6 0 -19 8 -29 18 -48 44 -83 73 -106 88 -14 9 -41 31 -59
48 -18 17 -73 67 -121 111 -48 44 -98 90 -110 103 -12 12 -27 22 -34 22 -6 0
-11 5 -11 11 0 6 -19 30 -42 54 -68 68 -193 206 -196 216 -2 5 -10 9 -18 9 -8
0 -14 3 -14 8 0 4 -23 32 -50 61 -28 30 -50 59 -50 63 0 4 -6 8 -12 8 -7 0
-22 18 -32 40 -11 22 -22 40 -25 40 -4 0 -24 25 -46 56 -22 31 -46 62 -53 69
-6 8 -12 18 -12 24 0 6 -9 15 -20 21 -11 6 -20 15 -20 20 0 5 -12 21 -26 37
-14 15 -33 44 -42 63 -9 20 -36 60 -60 90 -42 54 -152 217 -152 226 0 3 -9 15
-21 27 -12 12 -24 29 -27 37 -10 23 -125 214 -132 220 -3 3 -14 21 -24 40 -9
19 -28 53 -41 75 -28 47 -55 96 -109 197 -21 40 -47 85 -58 100 -10 15 -25 44
-32 65 -7 21 -23 56 -34 78 -11 22 -41 91 -66 153 -25 61 -67 163 -92 225 -41
100 -75 198 -174 512 -87 274 -154 546 -175 710 -3 28 -13 84 -21 125 -94 494
-124 1113 -84 1730 10 167 18 228 44 377 12 65 19 110 21 123 1 8 5 22 8 30 3
8 13 67 22 130 22 163 49 282 113 515 57 203 97 338 122 410 26 74 65 186 74
210 2 6 3 12 3 15 0 3 10 23 22 45 11 22 21 46 21 53 0 16 27 77 86 195 24 49
44 95 44 103 0 8 4 14 9 14 5 0 15 17 22 38 10 31 119 252 148 302 5 8 28 49
51 90 50 89 92 154 103 158 4 2 7 8 7 14 0 6 14 31 32 57 17 25 50 73 73 107
38 56 98 134 135 175 8 9 35 45 60 79 24 35 49 68 55 74 6 6 16 22 23 36 31
61 40 72 45 58 4 -9 6 -9 6 3 1 9 22 36 49 60 26 24 58 59 71 76 13 18 28 30
34 26 5 -3 7 -1 4 4 -4 6 2 22 13 36 11 14 20 30 20 36 0 6 4 11 10 11 5 0 26
23 47 50 20 28 42 50 48 50 11 0 95 84 95 95 0 3 13 20 30 38 16 18 30 35 30
40 0 4 7 7 15 7 8 0 15 9 15 20 0 11 7 20 15 20 9 0 22 15 30 33 7 17 16 31
19 30 3 -2 7 0 8 5 1 4 12 15 25 25 13 10 23 24 23 32 0 7 9 15 20 18 11 3 19
9 18 14 -4 12 48 73 56 66 3 -4 6 -1 6 6 0 8 6 11 16 7 8 -3 12 -2 9 4 -5 9
24 48 71 94 11 12 24 29 27 40 5 11 13 16 23 12 9 -3 14 -1 12 5 -3 10 124
149 137 149 4 0 19 12 34 28 66 66 241 205 279 220 36 14 115 69 182 125 37
31 71 57 75 57 11 0 149 92 153 102 2 4 10 8 17 8 7 0 15 3 17 8 3 6 55 36
115 66 13 6 23 14 23 18 0 3 14 9 30 13 17 4 30 10 30 15 0 4 12 13 28 19 15
6 50 24 77 41 28 16 75 41 105 56 64 31 72 34 153 78 34 18 118 52 187 76 120
41 229 86 240 100 3 3 24 12 48 18 23 7 42 17 42 22 0 6 13 10 29 10 33 0 84
15 124 37 15 8 34 12 42 9 7 -2 15 0 18 7 3 9 11 9 33 -1 25 -11 26 -10 12 1
-16 13 -16 15 8 25 14 7 33 12 42 12 9 0 41 9 70 20 29 11 61 20 72 20 11 0
20 5 20 10 0 6 10 10 22 10 20 0 69 15 133 40 11 4 40 14 65 21 58 16 53 15
70 22 8 3 31 10 50 16 19 5 53 17 75 25 22 8 57 15 78 16 20 0 37 4 37 8 0 8
75 22 255 47 198 27 329 33 424 20 42 -6 52 -5 46 5 -6 9 0 10 24 5 19 -4 31
-3 31 4 0 6 7 8 16 4 9 -3 19 -1 23 6 5 7 36 12 79 12 58 1 76 5 103 25 18 13
29 24 24 24 -5 0 2 11 15 25 29 31 60 32 113 1z m4427 -38 c13 -25 13 -29 -2
-45 -37 -36 -93 12 -74 63 10 25 58 13 76 -18z m-12444 -35 c47 -51 43 -99
-10 -118 -43 -15 -60 3 -64 66 -3 42 1 56 14 66 25 18 32 17 60 -14z m11384 7
c0 -12 -28 -25 -36 -17 -9 9 6 27 22 27 8 0 14 -5 14 -10z m-10360 -46 c7 -7
10 -23 8 -36 -3 -20 -9 -23 -48 -23 -41 0 -45 2 -48 27 -6 47 57 70 88 32z
m-2026 -33 c25 -28 16 -62 -22 -84 -33 -19 -33 -19 -57 3 -30 28 -36 54 -18
79 19 27 73 28 97 2z m17156 -6 c0 -8 -4 -15 -10 -15 -5 0 -10 7 -10 15 0 8 5
15 10 15 6 0 10 -7 10 -15z m-14148 -38 c13 -20 9 -65 -8 -81 -21 -22 -67 -20
-89 4 -15 17 -16 24 -5 50 7 17 20 35 29 40 19 12 63 4 73 -13z m15882 4 c38
-24 76 -73 76 -99 0 -25 -19 -42 -47 -42 -16 0 -27 -8 -33 -25 -11 -30 -34
-32 -78 -5 -36 22 -56 62 -46 94 12 38 62 90 93 95 2 1 18 -8 35 -18z m-2997
-60 c30 -45 29 -64 -6 -103 -29 -33 -30 -33 -58 -16 -38 23 -65 61 -65 92 0
71 87 89 129 27z m-4097 -21 c20 -13 2 -44 -29 -48 -29 -5 -40 27 -16 44 22
16 25 17 45 4z m-9897 -65 c37 -35 34 -59 -10 -90 -48 -32 -66 -32 -92 1 -27
34 -26 53 1 87 28 34 65 35 101 2z m3091 19 c17 -7 23 -64 7 -64 -24 0 -41 14
-41 34 0 33 8 40 34 30z m11827 -11 c19 -9 60 -37 92 -61 44 -35 57 -51 57
-72 0 -28 -40 -73 -76 -84 -53 -16 -126 48 -150 131 -14 49 -14 56 0 78 19 29
31 31 77 8z m583 1 c33 -32 12 -94 -32 -94 -34 0 -72 26 -72 48 1 17 54 59 77
61 6 1 19 -6 27 -15z m-17920 -235 c36 -28 35 -59 -2 -59 -22 0 -31 7 -44 35
-14 32 -12 41 13 44 4 1 18 -8 33 -20z m886 -38 c11 -22 13 -61 4 -85 -8 -22
-72 -21 -96 1 -23 21 -23 38 3 74 25 35 72 40 89 10z m3918 -23 c26 -26 -1
-68 -44 -68 -29 0 -30 6 -4 48 21 35 30 38 48 20z m12099 -60 c12 -13 27 -42
33 -65 11 -36 11 -46 -3 -67 -23 -35 -67 -41 -121 -18 -75 34 -84 72 -30 132
43 48 87 54 121 18z m1361 -6 c2 -7 -6 -12 -17 -12 -21 0 -27 11 -14 24 9 9
26 2 31 -12z m192 8 c0 -5 -4 -10 -10 -10 -5 0 -10 5 -10 10 0 6 5 10 10 10 6
0 10 -4 10 -10z m-13880 -35 c10 -12 10 -18 0 -30 -25 -30 -61 -7 -46 30 3 8
12 15 19 15 8 0 20 -7 27 -15z m10355 -50 c0 -13 -8 -21 -22 -23 -19 -3 -23 1
-23 23 0 22 4 26 23 23 14 -2 22 -10 22 -23z m4801 -20 c4 -8 1 -21 -5 -28 -6
-8 -8 -29 -4 -50 5 -33 3 -37 -16 -37 -22 0 -28 23 -12 49 6 9 6 22 0 32 -11
22 -2 49 17 49 8 0 17 -7 20 -15z m-378 -58 c25 -17 11 -62 -45 -145 -64 -95
-91 -112 -172 -112 -35 0 -51 4 -55 16 -11 30 -6 61 19 108 14 26 25 58 25 71
0 13 12 35 26 48 23 22 34 24 108 23 44 -1 87 -5 94 -9z m-16470 -26 c5 -34
-16 -51 -33 -27 -10 14 -11 24 -4 38 13 24 33 18 37 -11z m534 -58 c15 -15 28
-37 28 -49 0 -28 -65 -84 -98 -84 -31 0 -72 46 -72 80 0 75 86 107 142 53z
m-2098 -9 c60 -61 2 -149 -79 -118 -23 9 -47 61 -39 87 8 28 43 56 70 57 12 0
33 -12 48 -26z m13435 -30 c73 -61 8 -169 -81 -135 -33 12 -72 75 -61 96 13
22 74 65 94 65 10 0 31 -12 48 -26z m-12847 -24 c50 -14 68 -34 68 -78 0 -55
11 -66 65 -64 54 3 75 -10 75 -44 0 -14 6 -24 15 -24 30 0 63 -23 79 -56 20
-43 21 -41 -8 -60 -23 -14 -28 -14 -63 3 -21 10 -46 16 -57 15 -10 -2 -40 7
-66 19 -47 22 -70 51 -70 88 0 16 -6 18 -42 14 -39 -4 -46 -1 -76 30 -44 46
-53 101 -22 140 23 29 44 33 102 17z m17013 -60 c0 -8 -10 -16 -22 -18 -18 -3
-23 2 -23 18 0 16 5 21 23 18 12 -2 22 -10 22 -18z m905 10 c0 -5 -7 -10 -15
-10 -8 0 -15 5 -15 10 0 6 7 10 15 10 8 0 15 -4 15 -10z m-15600 -40 c0 -5 -9
-10 -20 -10 -11 0 -20 5 -20 10 0 6 9 10 20 10 11 0 20 -4 20 -10z m13834
-207 c30 -32 40 -71 31 -113 -9 -40 -40 -60 -92 -60 -33 0 -48 6 -68 28 -45
48 -45 87 2 142 34 41 91 42 127 3z m-1788 -155 c9 -15 -27 -41 -39 -29 -13
13 -1 41 17 41 8 0 18 -5 22 -12z m-679 -104 c67 -42 24 -174 -56 -174 -36 0
-87 33 -111 72 -11 18 -20 36 -20 39 0 18 49 74 70 80 32 9 89 1 117 -17z
m-10659 -65 c2 -15 -4 -31 -13 -39 -24 -20 -50 9 -41 45 9 36 50 32 54 -6z
m-698 -69 c0 -11 -7 -20 -15 -20 -15 0 -21 21 -8 33 12 13 23 7 23 -13z
m-1170 -250 c0 -5 -4 -10 -10 -10 -5 0 -10 5 -10 10 0 6 5 10 10 10 6 0 10 -4
10 -10z m16295 -75 c8 -23 6 -30 -14 -46 -28 -23 -35 -24 -56 -2 -19 19 -15
81 7 94 18 11 51 -13 63 -46z m523 32 c6 -28 -5 -47 -23 -41 -9 4 -15 18 -15
36 0 23 4 29 17 26 10 -2 19 -11 21 -21z m-15102 -118 c3 -6 1 -16 -5 -22 -9
-9 -14 -8 -21 3 -9 15 -4 30 10 30 5 0 12 -5 16 -11z m13695 -45 c11 -14 9
-20 -15 -41 -31 -26 -49 -26 -54 1 -4 19 24 56 43 56 7 0 19 -7 26 -16z
m-3231 -19 c0 -28 -24 -34 -34 -9 -8 20 1 34 20 34 8 0 14 -10 14 -25z
m-11146 -31 c21 -8 21 -40 0 -48 -21 -8 -34 1 -34 23 0 28 9 34 34 25z m12544
-76 c-3 -34 -22 -45 -47 -29 -22 14 2 61 29 61 18 0 21 -5 18 -32z m600 -55
c-5 -26 -38 -29 -38 -4 0 15 6 21 21 21 14 0 19 -5 17 -17z m-13834 -19 c23
-9 20 -34 -4 -34 -13 0 -20 7 -20 20 0 22 1 23 24 14z m984 -18 c28 -35 14
-88 -27 -99 -23 -6 -34 1 -50 30 -16 31 -14 50 8 72 20 20 53 19 69 -3z
m-1200 -13 c3 -19 -1 -23 -22 -23 -28 0 -41 14 -32 36 9 24 50 13 54 -13z
m13465 -7 c101 -43 81 -125 -30 -126 -54 0 -83 26 -83 74 0 58 48 80 113 52z
m-14433 -66 c0 -5 -4 -10 -10 -10 -5 0 -10 5 -10 10 0 6 5 10 10 10 6 0 10 -4
10 -10z m1459 -126 c-16 -19 -29 -17 -29 4 0 26 11 34 27 21 10 -9 10 -15 2
-25z m-2059 7 c0 -14 -5 -18 -20 -14 -11 3 -20 12 -20 19 0 8 9 14 20 14 13 0
20 -7 20 -19z m16564 -47 c21 -20 20 -50 0 -58 -39 -15 -72 22 -52 58 11 20
32 21 52 0z m826 -26 c0 -6 -7 -5 -15 2 -8 7 -15 17 -15 22 0 6 7 5 15 -2 8
-7 15 -17 15 -22z m-15692 -24 c4 -25 -22 -49 -43 -40 -31 12 -9 70 25 64 8
-2 16 -13 18 -24z m13886 -47 c8 -12 8 -22 0 -34 -16 -25 -38 -22 -42 5 -7 50
18 67 42 29z m-570 -123 c20 -20 20 -53 0 -82 -18 -26 -37 -28 -59 -5 -20 20
-13 72 12 91 22 16 28 15 47 -4z m-14084 -83 c0 -34 -26 -71 -50 -71 -27 0
-33 16 -20 55 19 58 70 69 70 16z m13365 -41 c0 -27 -22 -39 -31 -16 -8 22 3
49 19 43 6 -2 12 -14 12 -27z m2884 -26 c38 -32 39 -45 4 -83 -38 -41 -72 -48
-106 -21 -42 34 -35 75 19 110 39 25 47 24 83 -6z m-663 -119 c13 -20 14 -28
4 -40 -29 -35 -75 -3 -63 43 7 30 39 28 59 -3z m-15348 -124 c18 -11 12 -45
-8 -49 -9 -1 -24 4 -34 11 -37 27 4 63 42 38z m16675 -19 c51 -56 15 -137 -61
-137 -79 0 -109 70 -55 127 32 34 90 39 116 10z m-2533 -17 c15 -17 5 -35 -20
-35 -22 0 -33 23 -17 39 15 15 22 14 37 -4z m-662 -27 c7 -7 12 -23 12 -36 0
-21 -4 -23 -37 -20 -27 2 -39 8 -41 21 -7 37 39 62 66 35z m3677 -99 c13 -40
-35 -66 -55 -30 -13 25 -13 27 5 45 19 18 42 11 50 -15z m-18897 -27 c2 -7 -3
-12 -12 -12 -9 0 -16 7 -16 16 0 17 22 14 28 -4z m937 -21 c7 -12 -35 -52 -47
-45 -12 7 -10 28 4 42 14 14 35 16 43 3z m1365 -11 c0 -5 -4 -10 -10 -10 -5 0
-10 5 -10 10 0 6 5 10 10 10 6 0 10 -4 10 -10z m-737 -36 c9 -9 -15 -54 -29
-54 -20 0 -26 18 -14 40 10 19 31 26 43 14z m14055 -6 c17 -17 15 -45 -4 -52
-24 -9 -31 -8 -48 10 -12 12 -13 20 -6 35 12 21 40 25 58 7z m1012 -123 c11
-30 4 -52 -22 -66 -27 -15 -48 5 -48 46 0 38 6 45 37 45 16 0 27 -8 33 -25z
m-17642 -87 c4 -30 -24 -51 -61 -46 -51 7 -20 82 32 76 20 -2 27 -9 29 -30z
m16957 -38 c0 -29 -32 -41 -41 -16 -9 24 4 48 23 44 12 -2 18 -12 18 -28z
m-875 -21 c0 -12 -7 -19 -19 -19 -26 0 -36 17 -21 35 15 18 40 8 40 -16z
m-14445 -14 c0 -11 -8 -21 -17 -23 -14 -3 -18 3 -18 23 0 20 4 26 18 23 9 -2
17 -12 17 -23z m15243 -127 c-2 -17 -8 -33 -14 -35 -16 -5 -44 25 -44 48 0 15
7 19 31 19 28 0 30 -2 27 -32z m-14773 -7 c3 -5 1 -12 -5 -16 -5 -3 -10 1 -10
9 0 18 6 21 15 7z m17633 -13 c19 -19 14 -28 -18 -28 -18 0 -30 5 -30 13 0 28
27 36 48 15z m-3156 -190 c-9 -9 -12 -7 -12 12 0 19 3 21 12 12 9 -9 9 -15 0
-24z m-15874 -110 c19 -19 15 -48 -7 -48 -21 0 -33 22 -25 45 7 18 16 19 32 3z
m17263 -8 c24 -13 49 -61 49 -95 0 -36 -42 -75 -80 -75 -45 0 -103 56 -103
100 0 60 77 100 134 70z m-15193 -83 c-4 -30 -44 -35 -53 -7 -4 12 -1 27 5 35
18 21 52 1 48 -28z m13492 18 c0 -16 -6 -25 -15 -25 -15 0 -21 31 -8 43 13 14
23 6 23 -18z m1128 4 c-2 -6 -8 -10 -13 -10 -5 0 -11 4 -13 10 -2 6 4 11 13
11 9 0 15 -5 13 -11z m-482 -234 c8 -20 -13 -45 -38 -45 -21 0 -33 22 -24 45
7 20 55 19 62 0z m2624 -45 c0 -5 -9 -10 -20 -10 -11 0 -20 5 -20 10 0 6 9 10
20 10 11 0 20 -4 20 -10z m-19435 -133 c19 -15 35 -33 35 -39 0 -16 -105 -115
-130 -123 -24 -8 -104 18 -132 43 -21 17 -23 54 -7 85 15 28 28 37 55 37 12 0
26 6 32 13 6 7 32 12 61 12 41 0 58 -6 86 -28z m17451 -152 c11 -45 -3 -75
-35 -75 -35 0 -55 37 -41 75 14 36 67 36 76 0z m-16102 -28 c27 -20 18 -71
-13 -75 -27 -4 -41 12 -41 49 0 41 20 51 54 26z m15404 -125 c2 -7 -6 -12 -17
-12 -21 0 -27 11 -14 24 9 9 26 2 31 -12z m-16033 -122 c-3 -5 -10 -10 -16
-10 -5 0 -9 5 -9 10 0 6 7 10 16 10 8 0 12 -4 9 -10z m19103 -45 c16 -35 15
-60 -3 -75 -24 -20 -65 3 -65 35 0 61 46 88 68 40z m-1070 -2 c2 -8 -5 -13
-17 -13 -12 0 -21 6 -21 16 0 18 31 15 38 -3z m666 -105 c9 -12 16 -30 16 -39
0 -22 -34 -51 -52 -44 -18 7 -38 47 -38 75 0 35 52 40 74 8z m-19549 -48 c-3
-5 -10 -10 -16 -10 -5 0 -9 5 -9 10 0 6 7 10 16 10 8 0 12 -4 9 -10z m2760
-80 c3 -5 2 -10 -4 -10 -5 0 -13 5 -16 10 -3 6 -2 10 4 10 5 0 13 -4 16 -10z
m16423 -48 c4 -28 -24 -40 -45 -19 -21 21 -9 49 19 45 15 -2 24 -11 26 -26z
m447 -7 c20 -46 7 -80 -34 -88 -37 -8 -76 5 -85 28 -19 51 13 95 70 95 31 0
37 -4 49 -35z m-1109 -31 c15 -23 16 -27 2 -41 -24 -23 -58 -8 -58 26 0 48 29
56 56 15z m-1518 -2 c3 -9 -3 -13 -19 -10 -12 1 -24 9 -27 16 -3 9 3 13 19 10
12 -1 24 -9 27 -16z m3039 -54 c32 -36 47 -93 33 -128 -14 -33 -79 -56 -128
-45 -45 10 -85 50 -76 77 17 55 87 117 130 118 11 0 30 -10 41 -22z m-19310
-134 c-9 -9 -28 6 -21 18 4 6 10 6 17 -1 6 -6 8 -13 4 -17z m17226 -174 c44
-49 36 -103 -23 -143 -36 -25 -58 -21 -96 17 -26 26 -34 42 -34 70 0 45 23 93
47 98 32 7 77 -11 106 -42z m-17617 -105 c4 -8 3 -23 0 -32 -6 -15 -8 -15 -22
-2 -8 9 -12 23 -8 32 8 21 23 22 30 2z m2307 -10 c4 -8 2 -17 -4 -21 -11 -6
-39 13 -39 27 0 15 37 10 43 -6z m-1138 -135 c0 -36 -29 -33 -33 3 -3 23 0 28
15 25 12 -2 18 -12 18 -28z m17493 -16 c31 -21 31 -88 1 -105 -31 -16 -86 -4
-109 23 -25 29 -25 39 1 72 24 30 72 35 107 10z m-17993 -137 c49 -28 67 -60
61 -111 -8 -67 -69 -101 -165 -94 -59 4 -86 39 -85 108 0 53 12 73 59 102 40
24 81 23 130 -5z m18875 -37 c7 -16 9 -41 6 -55 -5 -21 -12 -26 -34 -23 -16 2
-32 13 -41 30 -13 23 -13 30 -1 52 19 36 54 34 70 -4z m-19316 -31 c62 -48 74
-128 28 -180 -23 -26 -38 -33 -80 -37 -50 -4 -54 -3 -87 32 -39 42 -45 77 -19
129 36 73 105 97 158 56z m1827 -126 c56 -34 55 -116 -2 -157 -35 -24 -57 -20
-94 22 -44 47 -44 75 -1 118 38 38 55 41 97 17z m-2349 -30 c27 -24 23 -61 -7
-69 -33 -8 -55 11 -55 46 0 40 31 51 62 23z m18532 -99 c3 -9 6 -31 6 -50 0
-29 -3 -34 -24 -34 -19 0 -26 7 -31 29 -11 50 32 99 49 55z m465 -36 c13 -23
13 -30 1 -53 -8 -15 -20 -30 -27 -32 -47 -18 -97 44 -74 93 9 21 17 25 48 22
28 -2 41 -10 52 -30z m-17461 -81 c2 -19 -1 -27 -12 -27 -20 0 -26 12 -19 39
7 29 27 21 31 -12z m525 -29 c25 -30 21 -63 -13 -96 -79 -79 -178 -23 -148 84
13 49 56 68 107 47 20 -8 44 -23 54 -35z m17415 0 c32 -32 -1 -104 -36 -81
-24 14 -26 40 -8 68 18 28 27 30 44 13z m-18463 -88 c0 -27 -22 -39 -31 -16
-8 22 3 49 19 43 6 -2 12 -14 12 -27z m17466 -129 c36 -29 34 -99 -5 -140 -36
-38 -88 -63 -113 -55 -26 10 -53 45 -53 73 0 36 37 88 83 116 51 30 58 30 88
6z m-783 -2 c40 -14 82 -75 82 -120 0 -58 -36 -84 -116 -84 -58 0 -67 3 -84
25 -31 40 -35 82 -11 128 27 54 71 71 129 51z m1106 -15 c33 -13 9 -91 -35
-115 -14 -7 -27 -5 -49 6 -52 27 -67 84 -27 103 25 12 87 15 111 6z m-16962
-153 c13 -5 34 -19 47 -31 31 -30 24 -90 -15 -131 -23 -24 -36 -29 -74 -29
-51 0 -80 21 -100 74 -14 38 -6 58 36 95 36 32 65 38 106 22z m488 -21 c0 -11
-7 -20 -15 -20 -8 0 -15 9 -15 20 0 11 7 20 15 20 8 0 15 -9 15 -20z m-1013
-182 c31 -29 32 -92 1 -125 -53 -56 -148 -8 -148 75 0 45 8 58 40 71 34 14 79
5 107 -21z m18743 -246 c0 -4 -5 -13 -12 -20 -18 -18 -28 -15 -28 8 0 13 7 20
20 20 11 0 20 -4 20 -8z m-3026 -207 c21 -32 20 -44 -6 -72 -38 -41 -91 -26
-91 26 0 63 65 94 97 46z m1955 -91 c27 -35 27 -73 -2 -115 -33 -49 -68 -51
-96 -4 -37 63 -36 78 4 113 44 39 67 40 94 6z m-846 -21 c8 -7 -11 -33 -24
-33 -5 0 -9 9 -9 20 0 19 20 27 33 13z m-17825 -29 c27 -18 30 -75 6 -95 -24
-20 -84 -16 -100 6 -19 25 -18 70 2 89 20 20 63 20 92 0z m17160 -210 c30 -20
31 -88 3 -104 -28 -15 -77 -12 -90 4 -14 17 -17 61 -7 94 9 27 59 31 94 6z
m2220 -27 c3 -37 2 -38 -25 -35 -32 3 -44 38 -22 64 21 26 44 12 47 -29z
m-1911 -63 c39 -42 4 -94 -64 -94 -74 0 -110 63 -62 111 27 27 94 19 126 -17z
m1153 -19 c0 -16 -6 -25 -15 -25 -9 0 -15 9 -15 25 0 16 6 25 15 25 9 0 15 -9
15 -25z m-18711 -24 c25 -35 26 -50 3 -77 -58 -69 -132 -52 -132 29 0 53 22
77 71 77 30 0 42 -6 58 -29z m18473 -12 c18 -24 18 -29 5 -60 -21 -52 -42 -63
-104 -60 -32 2 -63 39 -63 76 0 77 115 108 162 44z m-17742 -99 c0 -20 -5 -30
-15 -30 -18 0 -30 24 -21 45 10 28 36 17 36 -15z m19170 -35 c15 -18 5 -35
-20 -35 -22 0 -34 15 -26 35 7 19 30 19 46 0z m-17100 -45 c0 -5 -5 -10 -11
-10 -5 0 -7 5 -4 10 3 6 8 10 11 10 2 0 4 -4 4 -10z m-692 -42 c16 -16 15 -53
-3 -68 -21 -17 -35 -4 -35 34 0 45 14 58 38 34z m14679 -146 c34 -19 63 -62
63 -94 0 -21 -11 -41 -34 -64 -46 -46 -100 -48 -149 -4 -38 33 -49 67 -38 120
12 62 85 81 158 42z m-14127 -7 c0 -8 -7 -15 -15 -15 -8 0 -15 7 -15 15 0 8 7
15 15 15 8 0 15 -7 15 -15z m16735 -45 c3 -5 -3 -10 -14 -10 -12 0 -21 5 -21
10 0 6 6 10 14 10 8 0 18 -4 21 -10z m464 -124 c15 -18 3 -46 -19 -46 -25 0
-33 16 -20 40 13 23 23 25 39 6z m-17239 -81 c0 -8 -7 -15 -15 -15 -8 0 -15 7
-15 15 0 8 7 15 15 15 8 0 15 -7 15 -15z m15340 -10 c15 -18 5 -35 -21 -35
-12 0 -19 7 -19 18 0 33 20 42 40 17z m-16762 -47 c18 -18 15 -43 -8 -63 -24
-22 -66 -13 -75 16 -13 41 52 78 83 47z m785 -29 c-17 -17 -37 -1 -22 17 8 10
15 12 23 4 7 -7 7 -13 -1 -21z m17581 -5 c9 -3 16 -17 16 -31 0 -21 -4 -24
-27 -21 -31 3 -44 35 -21 49 16 11 13 10 32 3z m-937 -40 c-9 -9 -28 6 -21 18
4 6 10 6 17 -1 6 -6 8 -13 4 -17z m-17927 -25 c0 -20 -24 -26 -35 -9 -4 6 -4
17 -1 25 7 20 36 7 36 -16z m16634 -1 c29 -41 -20 -74 -78 -52 -19 7 -21 45
-4 62 20 20 65 14 82 -10z m984 -61 c2 -10 -3 -17 -12 -17 -18 0 -29 16 -21
31 9 14 29 6 33 -14z m-18026 -134 c28 -25 22 -51 -16 -69 -29 -14 -37 -15
-62 -3 -58 28 -34 107 29 95 17 -4 39 -14 49 -23z m19036 -13 c44 -32 57 -72
26 -84 -61 -23 -164 31 -164 86 0 27 2 28 48 28 39 0 58 -6 90 -30z m-16744
-7 c9 -22 -12 -43 -23 -24 -10 15 -4 41 9 41 4 0 11 -8 14 -17z m-501 -34 c15
-24 1 -49 -27 -49 -26 0 -40 22 -30 52 7 23 42 21 57 -3z m-1358 -153 c21 -32
10 -58 -24 -54 -22 3 -26 8 -29 41 -3 32 0 37 17 37 11 0 27 -11 36 -24z
m18437 -83 c44 -40 7 -99 -58 -91 -39 4 -46 49 -13 84 26 28 46 30 71 7z
m-18892 -55 c26 -42 25 -80 0 -103 -20 -18 -21 -18 -48 2 -21 15 -28 30 -30
62 -6 74 42 97 78 39z m1150 17 c0 -8 -4 -15 -10 -15 -5 0 -10 7 -10 15 0 8 5
15 10 15 6 0 10 -7 10 -15z m16645 -99 c72 -30 84 -109 25 -168 -24 -23 -37
-28 -78 -28 -46 0 -51 3 -76 38 -34 50 -34 91 2 125 24 23 63 45 85 46 4 1 23
-5 42 -13z m-16297 -79 c2 -12 -3 -17 -17 -17 -12 0 -21 6 -21 13 0 31 32 34
38 4z m-1121 -31 c22 -20 26 -28 18 -42 -16 -25 -49 -34 -76 -20 -33 16 -36
50 -7 70 29 21 32 20 65 -8z m18172 -152 c82 -69 -11 -179 -112 -133 -48 22
-62 99 -27 137 30 32 99 30 139 -4z m-8986 -31 c-7 -2 -19 -2 -25 0 -7 3 -2 5
12 5 14 0 19 -2 13 -5z m-9475 -19 c54 -11 70 -88 26 -123 -24 -19 -28 -19
-61 -6 -20 8 -45 15 -58 15 -12 0 -30 9 -40 20 -23 25 -31 25 -38 1 -4 -18
-84 -61 -113 -61 -24 0 -44 43 -44 97 l0 53 39 0 c21 0 49 -8 62 -17 55 -41
62 -42 86 -12 30 35 77 46 141 33z m19677 -64 c7 -12 -12 -50 -26 -50 -13 0
-22 27 -15 45 6 17 32 20 41 5z m-9745 -46 c8 -8 27 -21 45 -28 17 -7 37 -20
45 -28 8 -8 69 -55 136 -106 146 -111 270 -237 303 -310 37 -80 14 -86 -37
-10 -46 70 -168 191 -269 268 -37 28 -94 76 -128 108 -33 31 -78 72 -98 90
-21 17 -31 32 -24 32 8 0 20 -7 27 -16z m7256 -57 c3 -3 6 -31 5 -48 -3 -37
-78 -31 -87 7 -9 35 13 57 50 50 16 -4 31 -7 32 -9z m-1382 -43 c24 -9 59 -73
58 -105 -2 -69 -76 -116 -141 -90 -37 16 -74 81 -65 115 14 57 95 100 148 80z
m-6781 -77 c-42 -45 -101 -143 -188 -313 -41 -80 -75 -138 -75 -127 0 10 4 23
8 29 4 5 23 45 42 89 59 137 117 239 176 303 31 35 59 60 62 57 3 -3 -8 -20
-25 -38z m-8219 -43 c19 -19 20 -26 4 -42 -29 -29 -66 -2 -53 39 8 23 28 24
49 3z m-160 -23 c25 -28 18 -75 -13 -79 -13 -2 -28 1 -33 6 -15 15 -13 73 3
83 20 12 24 11 43 -10z m18456 -195 c0 -16 -14 -36 -26 -36 -16 0 -16 2 -8 24
5 14 34 24 34 12z m-17720 -46 c0 -5 -4 -10 -10 -10 -5 0 -10 5 -10 10 0 6 5
10 10 10 6 0 10 -4 10 -10z m-1056 -65 c4 -10 -3 -20 -20 -27 -20 -9 -28 -9
-41 4 -8 9 -12 21 -9 27 11 17 63 13 70 -4z m2486 -57 c35 -59 23 -115 -31
-143 -27 -14 -33 -14 -65 1 -45 22 -70 73 -53 107 24 47 51 67 91 67 32 0 41
-5 58 -32z m7687 -10 c-3 -8 -6 -5 -6 6 -1 11 2 17 5 13 3 -3 4 -12 1 -19z
m7368 -33 c28 -27 30 -37 14 -68 -24 -45 -54 -48 -98 -11 -37 31 -40 66 -9 88
32 23 65 20 93 -9z m-18061 -52 c96 -56 166 -121 166 -152 0 -61 -75 -121
-152 -121 -51 0 -59 28 -23 81 34 48 25 64 -45 74 -45 6 -103 38 -122 67 -12
20 -9 52 8 76 25 37 75 29 168 -25z m17376 -133 c0 -5 -4 -10 -10 -10 -5 0
-10 5 -10 10 0 6 5 10 10 10 6 0 10 -4 10 -10z m-16436 -51 c15 -12 26 -30 26
-44 0 -26 -42 -65 -70 -65 -19 0 -70 46 -70 63 0 18 52 67 71 67 9 0 28 -9 43
-21z m2214 -355 c52 -34 4 -134 -64 -134 -27 0 -42 8 -65 32 -31 34 -36 57
-18 89 21 40 95 46 147 13z m-3565 -383 c5 -22 0 -31 -20 -31 -7 0 -13 11 -13
25 0 30 25 34 33 6z m492 -218 c40 -30 28 -107 -21 -133 -48 -26 -134 17 -134
68 0 14 14 38 35 59 30 30 40 34 66 29 16 -3 41 -14 54 -23z m9055 -103 c0
-11 -4 -20 -9 -20 -5 0 -7 9 -4 20 3 11 7 20 9 20 2 0 4 -9 4 -20z m10480 -90
c0 -5 -4 -10 -10 -10 -5 0 -10 5 -10 10 0 6 5 10 10 10 6 0 10 -4 10 -10z
m-20112 -178 c4 -25 -23 -41 -40 -24 -7 7 -6 17 2 32 14 26 34 22 38 -8z
m13928 -87 c38 -25 47 -58 28 -105 -19 -46 -56 -80 -89 -80 -31 0 -85 39 -108
78 -54 91 72 171 169 107z m-8971 -75 c0 -33 -2 -35 -35 -35 -31 0 -35 3 -38
29 -4 33 12 47 48 44 21 -3 25 -8 25 -38z m475 30 c0 -5 -4 -10 -10 -10 -5 0
-10 5 -10 10 0 6 5 10 10 10 6 0 10 -4 10 -10z m-4540 -54 c0 -13 -20 -26 -41
-26 -5 0 -9 9 -9 20 0 15 7 20 25 20 15 0 25 -6 25 -14z m512 -2 c48 -19 108
-70 108 -92 0 -28 -41 -80 -76 -97 -47 -22 -78 -13 -127 36 -37 36 -39 42 -34
82 4 28 14 49 32 64 31 27 42 28 97 7z m2911 -55 c30 -33 34 -57 13 -97 -46
-89 -147 -86 -194 5 -22 40 11 88 78 117 43 19 67 13 103 -25z m-3410 -33 c44
-40 47 -67 11 -95 -36 -28 -60 -26 -95 8 -32 33 -37 65 -13 99 22 31 54 27 97
-12z m13679 -23 c24 -21 23 -48 -2 -73 -22 -22 -69 -27 -88 -8 -30 30 4 98 50
98 12 0 30 -7 40 -17z m-14387 -123 c-3 -5 -10 -10 -16 -10 -5 0 -9 5 -9 10 0
6 7 10 16 10 8 0 12 -4 9 -10z m15205 -11 c17 -32 5 -49 -35 -49 -19 0 -35 2
-35 4 0 2 -3 11 -6 19 -7 18 21 47 46 47 11 0 24 -9 30 -21z m-8800 -99 c0 -5
-4 -10 -9 -10 -6 0 -13 5 -16 10 -3 6 1 10 9 10 9 0 16 -4 16 -10z m-290 -45
c0 -8 -4 -15 -10 -15 -5 0 -10 7 -10 15 0 8 5 15 10 15 6 0 10 -7 10 -15z
m-5050 -75 c0 -23 -37 -47 -52 -32 -6 6 -7 19 -3 31 9 28 55 30 55 1z m4595
-10 c4 -6 4 -18 1 -27 -5 -12 -9 -13 -21 -3 -8 7 -15 19 -15 26 0 16 26 19 35
4z m-749 -108 c6 -4 14 -19 18 -34 13 -56 -72 -96 -95 -44 -23 49 34 107 77
78z m11521 -138 c-9 -9 -28 6 -21 18 4 6 10 6 17 -1 6 -6 8 -13 4 -17z
m-11107 -75 c0 -12 -7 -19 -19 -19 -26 0 -36 17 -21 35 15 18 40 8 40 -16z
m-1605 -9 c0 -7 -6 -15 -12 -17 -8 -3 -13 4 -13 17 0 13 5 20 13 18 6 -3 12
-11 12 -18z m7786 -37 c-12 -20 -14 -14 -5 12 4 9 9 14 11 11 3 -2 0 -13 -6
-23z m3342 -67 c7 -17 -11 -36 -35 -36 -18 0 -25 29 -11 43 11 12 41 8 46 -7z
m-8175 -7 c-2 -6 -8 -10 -13 -10 -5 0 -11 4 -13 10 -2 6 4 11 13 11 9 0 15 -5
13 -11z m12592 -45 c0 -2 -9 -4 -21 -4 -11 0 -18 4 -14 10 5 8 35 3 35 -6z
m-17430 -30 c0 -8 -4 -12 -10 -9 -5 3 -10 13 -10 21 0 8 5 12 10 9 6 -3 10
-13 10 -21z m-482 -16 c-5 -32 -28 -35 -28 -4 0 17 5 26 16 26 10 0 14 -7 12
-22z m-1108 -13 c14 -17 4 -55 -15 -55 -16 0 -31 43 -20 59 9 15 20 14 35 -4z
m348 -18 c2 -10 -3 -17 -12 -17 -18 0 -29 16 -21 31 9 14 29 6 33 -14z m10852
-64 c-11 -17 -11 -17 -6 0 3 10 7 28 7 40 2 22 2 22 6 0 2 -12 -1 -30 -7 -40z
m6147 -45 c-3 -8 -6 -5 -6 6 -1 11 2 17 5 13 3 -3 4 -12 1 -19z m-6152 -215
c9 -40 63 -46 314 -34 124 5 244 10 266 10 22 0 175 3 340 5 165 3 590 8 945
12 704 7 985 11 1275 19 105 2 323 7 485 9 162 3 309 5 325 6 17 0 164 0 327
0 163 -1 302 1 308 5 5 3 10 17 10 31 0 13 5 24 11 24 7 0 8 -11 4 -30 l-7
-30 216 0 c132 0 217 4 221 10 9 15 63 12 90 -6 30 -19 61 -11 69 19 6 22 7
22 29 -5 23 -28 57 -38 57 -17 0 6 9 9 20 6 10 -3 21 0 24 7 3 7 8 6 15 -4 9
-12 13 -12 19 -2 5 6 19 11 33 10 13 -1 33 2 45 5 14 5 28 1 44 -13 16 -14 27
-17 35 -10 7 6 27 7 45 4 17 -4 35 -3 39 2 3 5 21 17 39 26 27 14 32 15 32 3
0 -9 9 -15 21 -15 15 0 19 -5 15 -15 -3 -8 -1 -15 4 -15 6 0 10 -10 10 -21 0
-19 4 -21 30 -15 19 3 29 2 25 -4 -3 -6 -1 -10 4 -10 27 0 7 -18 -24 -22 -19
-2 -35 0 -35 4 0 5 -9 4 -19 -2 -14 -7 -22 -7 -26 1 -4 6 -13 8 -21 5 -8 -3
-14 -1 -14 3 0 5 7 11 15 15 18 6 20 36 3 36 -6 0 -4 6 7 13 11 9 14 16 7 21
-13 8 -57 -8 -67 -24 -5 -9 -1 -9 15 0 19 10 22 10 18 -1 -18 -47 -17 -56 2
-74 27 -24 25 -35 -5 -35 -14 0 -25 -4 -25 -8 0 -4 -8 -9 -17 -10 -116 -12
-157 -21 -165 -36 -7 -13 -13 -14 -23 -6 -10 8 -15 8 -20 0 -5 -7 -11 -8 -19
-1 -7 6 -17 6 -26 1 -8 -6 -32 -10 -52 -10 -25 0 -45 -7 -59 -21 -16 -16 -23
-18 -35 -9 -11 10 -15 9 -20 -3 -3 -9 -12 -13 -19 -11 -7 3 -28 -2 -47 -12
l-33 -18 28 -10 c30 -11 36 -31 11 -40 -26 -10 -34 -7 -34 14 0 11 -7 20 -15
20 -18 0 -22 -75 -5 -85 6 -4 8 -11 4 -16 -3 -5 -10 -7 -15 -3 -5 3 -7 9 -4
14 5 8 -45 18 -63 12 -7 -2 -12 -12 -12 -21 0 -24 -46 -67 -53 -49 -4 9 -6 7
-6 -4 -1 -10 5 -18 12 -19 6 0 3 -4 -8 -9 -13 -5 -24 -3 -31 6 -12 15 -49 20
-39 5 7 -12 -21 -21 -69 -23 -27 -1 -35 -5 -34 -17 2 -8 -4 -16 -12 -17 -31
-2 -35 -5 -20 -14 11 -7 9 -11 -14 -20 -16 -6 -46 -12 -68 -13 -23 -1 -38 -7
-38 -15 0 -9 -7 -11 -20 -7 -11 3 -25 3 -32 -2 -16 -9 -19 -10 -61 -12 -27 -1
-35 -6 -45 -33 -11 -30 -12 -31 -31 -14 -10 9 -22 13 -25 8 -3 -5 -24 -7 -46
-5 -24 2 -40 0 -40 -6 0 -6 11 -11 24 -11 14 0 28 -4 31 -10 3 -6 -4 -10 -17
-10 -27 0 -51 -16 -66 -44 -9 -18 -11 -17 -25 10 -10 17 -16 23 -17 13 0 -25
-39 -69 -60 -69 -10 0 -22 -9 -25 -21 -4 -11 -9 -18 -12 -15 -4 3 -12 1 -20
-5 -10 -9 -17 -8 -28 1 -13 11 -15 8 -15 -14 0 -24 -13 -35 -23 -18 -2 4 -3 2
-1 -5 1 -6 -3 -19 -11 -29 -11 -16 -15 -17 -31 -4 -13 12 -18 12 -21 3 -3 -7
-11 -13 -18 -13 -8 0 -20 -9 -28 -21 -8 -11 -23 -19 -34 -18 -10 2 -23 0 -30
-4 -6 -4 -14 -3 -18 3 -3 5 -14 10 -25 10 -13 0 -17 -5 -13 -18 3 -14 -5 -21
-37 -31 -22 -6 -44 -9 -49 -6 -5 3 -11 -5 -13 -17 -2 -17 -9 -22 -24 -21 -13
1 -25 -6 -32 -20 -8 -17 -11 -18 -11 -5 -1 24 -31 11 -31 -13 0 -14 -7 -19
-25 -19 -14 0 -25 5 -25 11 0 6 -8 7 -22 3 -13 -4 -32 -8 -44 -9 -11 -1 -25
-5 -32 -9 -7 -4 -17 -4 -23 0 -7 4 -9 0 -5 -13 5 -15 -2 -23 -29 -36 -19 -9
-41 -14 -50 -11 -10 4 -18 -3 -24 -19 -9 -23 -14 -24 -55 -20 -31 4 -46 2 -46
-6 0 -6 6 -11 14 -11 23 0 31 -22 13 -35 -10 -7 -17 -18 -17 -24 0 -7 -10 -11
-22 -9 -18 2 -24 11 -27 38 l-3 35 -13 -35 c-8 -19 -14 -27 -14 -17 -1 21 -24
22 -41 2 -10 -12 -10 -15 4 -15 20 0 20 -3 0 -42 -13 -25 -14 -32 -3 -39 11
-7 12 -10 1 -21 -11 -11 -16 -9 -28 6 -14 19 -14 19 -14 -2 0 -14 -6 -22 -18
-22 -9 0 -35 -14 -56 -32 -35 -29 -37 -33 -21 -44 19 -14 13 -48 -8 -42 -15 6
-22 78 -8 78 6 0 11 7 11 15 0 8 -9 15 -19 15 -21 0 -33 -22 -25 -44 3 -8 -4
-19 -16 -26 -12 -7 -19 -18 -16 -26 3 -8 -1 -14 -8 -14 -8 0 -13 8 -12 18 2
29 -38 22 -42 -8 -2 -14 -10 -32 -17 -40 -7 -8 -16 -26 -20 -38 -6 -21 -11
-23 -43 -17 -21 4 -45 16 -55 26 -18 19 -19 19 -32 2 -12 -16 -11 -18 5 -21
12 -2 16 -9 13 -22 -6 -24 -39 -36 -57 -21 -10 8 -20 5 -42 -14 -21 -18 -41
-25 -73 -25 -35 0 -42 -3 -37 -16 3 -9 6 -20 6 -25 0 -5 6 -9 13 -9 27 0 40
-17 28 -36 -6 -12 -11 -14 -11 -5 0 11 -3 11 -15 1 -10 -9 -15 -9 -15 -1 0 6
-9 11 -20 11 -10 0 -23 7 -28 16 -12 21 -32 10 -32 -17 0 -16 -7 -19 -54 -19
-34 0 -56 5 -59 13 -2 7 -8 8 -13 3 -5 -5 -4 -11 4 -13 6 -3 12 -20 12 -38 0
-24 -7 -37 -26 -50 -24 -16 -26 -16 -31 4 -8 31 -43 28 -43 -4 0 -23 -4 -25
-41 -25 -36 0 -42 -3 -52 -30 -12 -32 -27 -40 -27 -15 0 22 -18 18 -25 -5 -7
-21 -16 -24 -53 -13 -16 4 -22 11 -19 22 3 14 -2 16 -24 13 -26 -4 -29 -8 -29
-44 0 -39 -1 -40 -30 -36 -23 4 -31 0 -36 -16 -6 -18 -7 -18 -19 -3 -13 19
-35 23 -35 7 0 -5 -9 -19 -19 -29 -16 -16 -20 -17 -25 -5 -10 25 -36 16 -37
-13 -1 -17 -3 -21 -6 -10 -6 21 -21 22 -45 0 -10 -9 -33 -16 -53 -15 -19 1
-35 -2 -35 -7 0 -5 -7 -12 -16 -15 -14 -5 -15 -4 -4 9 10 12 10 15 -3 15 -9 0
-19 -10 -23 -22 l-7 -23 -10 23 c-17 37 -44 28 -52 -18 -8 -47 -35 -56 -35
-12 0 15 -5 34 -10 42 -7 12 -11 8 -16 -17 -4 -18 -13 -33 -20 -33 -8 0 -14
-4 -14 -10 0 -5 -11 -10 -24 -10 -14 0 -30 -10 -40 -25 -18 -28 -36 -25 -36 6
0 25 -13 24 -45 -5 -22 -20 -24 -27 -15 -50 13 -36 13 -36 -11 -36 -15 0 -19
5 -15 15 4 10 -1 15 -15 15 -16 0 -19 4 -14 21 6 18 5 19 -14 7 -24 -15 -26
-24 -8 -32 6 -2 -4 -4 -23 -3 -25 1 -37 8 -42 22 -9 24 -2 -27 8 -63 6 -21 4
-23 -22 -20 -17 2 -28 8 -26 16 4 20 -29 27 -40 9 -14 -27 -24 -20 -38 26 -12
41 -13 42 -24 17 -6 -14 -17 -30 -25 -36 -12 -10 -13 -15 -3 -27 10 -12 10
-16 0 -20 -9 -3 -6 -12 10 -30 19 -20 22 -29 13 -44 -8 -14 -11 -14 -11 -3 0
9 -6 5 -15 -10 -13 -24 -14 -24 -20 -5 -17 52 -26 65 -44 65 -10 0 -21 7 -25
15 -3 8 -12 15 -21 15 -11 0 -15 -12 -15 -52 0 -44 -2 -49 -12 -35 -12 15 -41
10 -39 -7 1 -3 -1 -5 -2 -3 -9 6 -37 -27 -37 -44 0 -13 -5 -17 -16 -12 -14 5
-15 3 -4 -16 6 -12 17 -20 23 -18 7 2 18 -3 25 -12 8 -10 11 -10 6 -2 -4 9 -3
12 3 8 6 -4 14 -22 17 -41 6 -31 11 -35 64 -50 31 -10 69 -24 85 -32 21 -12
27 -13 25 -2 -2 9 5 11 22 8 14 -3 50 -5 80 -4 30 0 49 -1 43 -3 -18 -6 -16
-23 2 -23 9 0 12 -6 8 -17 -5 -12 -2 -15 10 -10 9 3 17 2 17 -3 0 -18 -74 -23
-156 -10 -68 11 -89 11 -111 1 l-28 -13 46 -18 c26 -9 71 -20 100 -24 202 -25
369 -51 369 -58 0 -13 -72 -9 -252 12 -137 16 -182 25 -243 51 -239 99 -532
413 -701 749 -24 49 -44 92 -44 97 0 9 -34 96 -62 160 -10 24 -18 50 -18 58 0
8 -8 34 -19 58 -42 96 -43 132 -11 358 16 116 30 237 30 269 0 33 -14 126 -32
207 -29 136 -32 164 -32 338 -1 171 13 342 42 540 6 45 7 42 9 -40 2 -49 5
-100 8 -112z m6120 95 c-4 -47 -4 -48 -13 -48 -13 0 -12 32 0 58 15 29 16 28
13 -10z m-317 -46 c4 -23 -12 -29 -37 -13 -19 12 -6 43 16 39 10 -2 19 -13 21
-26z m-6237 -144 c-28 -217 -21 -541 15 -697 9 -42 66 -166 166 -365 189 -375
178 -352 178 -387 0 -69 -24 -30 -212 351 -74 151 -159 313 -187 360 -75 123
-85 165 -78 335 6 148 25 270 57 370 21 64 58 131 67 122 3 -3 0 -43 -6 -89z
m-7658 36 c-9 -23 -33 -16 -33 9 0 13 3 27 7 31 11 10 33 -23 26 -40z m14032
36 c3 -5 1 -10 -4 -10 -6 0 -11 5 -11 10 0 6 2 10 4 10 3 0 8 -4 11 -10z
m-225 -85 c0 -8 -4 -15 -10 -15 -5 0 -10 7 -10 15 0 8 5 15 10 15 6 0 10 -7
10 -15z m-395 -75 c-3 -5 -10 -10 -16 -10 -5 0 -9 5 -9 10 0 6 7 10 16 10 8 0
12 -4 9 -10z m-14575 -40 c0 -5 -4 -10 -10 -10 -5 0 -10 5 -10 10 0 6 5 10 10
10 6 0 10 -4 10 -10z m1130 -84 c0 -3 -4 -8 -10 -11 -5 -3 -10 -1 -10 4 0 6 5
11 10 11 6 0 10 -2 10 -4z m13230 -40 c0 -3 -4 -8 -10 -11 -5 -3 -10 -1 -10 4
0 6 5 11 10 11 6 0 10 -2 10 -4z m-80 -51 c0 -8 -4 -15 -10 -15 -5 0 -10 7
-10 15 0 8 5 15 10 15 6 0 10 -7 10 -15z m-13150 -50 c0 -8 -4 -15 -10 -15 -5
0 -10 7 -10 15 0 8 5 15 10 15 6 0 10 -7 10 -15z m867 -311 c-3 -3 -12 -4 -19
-1 -8 3 -5 6 6 6 11 1 17 -2 13 -5z m113 -35 c0 -18 -2 -19 -15 -5 -8 8 -15
17 -15 20 0 3 7 6 15 6 9 0 15 -9 15 -21z m460 -183 c0 -11 -19 -15 -25 -6 -3
5 1 10 9 10 9 0 16 -2 16 -4z m9880 -266 c0 -5 -7 -10 -15 -10 -8 0 -15 5 -15
10 0 6 7 10 15 10 8 0 15 -4 15 -10z m-8503 -242 c-3 -8 -6 -5 -6 6 -1 11 2
17 5 13 3 -3 4 -12 1 -19z m7978 -129 c-10 -15 -25 -10 -19 6 4 8 10 12 15 9
5 -3 7 -10 4 -15z m-53 -31 c-9 -9 -12 -7 -12 12 0 19 3 21 12 12 9 -9 9 -15
0 -24z m-6102 -452 c0 -3 -4 -8 -10 -11 -5 -3 -10 -1 -10 4 0 6 5 11 10 11 6
0 10 -2 10 -4z m4670 -90 c0 -3 -4 -8 -10 -11 -5 -3 -10 -1 -10 4 0 6 5 11 10
11 6 0 10 -2 10 -4z m-190 -86 c0 -5 -7 -10 -16 -10 -8 0 -12 5 -9 10 3 6 10
10 16 10 5 0 9 -4 9 -10z m-242 -124 c9 -21 8 -25 -11 -30 -26 -7 -26 -7 -20
27 7 33 16 34 31 3z m397 -226 c3 -5 1 -10 -4 -10 -6 0 -11 5 -11 10 0 6 2 10
4 10 3 0 8 -4 11 -10z m212 -126 c-3 -3 -12 -4 -19 -1 -8 3 -5 6 6 6 11 1 17
-2 13 -5z m506 -45 c42 -11 -143 -1 -198 11 -27 6 -5 7 63 3 56 -3 117 -9 135
-14z m317 -32 c52 -23 117 -72 189 -144 35 -34 67 -63 72 -63 5 0 9 -7 9 -15
0 -8 -3 -15 -7 -15 -3 0 -48 41 -100 91 -104 100 -140 120 -270 149 l-88 20
80 -4 c44 -3 96 -11 115 -19z m-7108 -9 c-7 -7 -12 -21 -12 -33 0 -11 -9 -38
-20 -60 -20 -39 -20 -39 -20 -10 0 17 7 39 15 49 8 11 15 30 15 43 0 15 6 23
17 23 13 0 14 -3 5 -12z m71 5 c-7 -2 -21 -2 -30 0 -10 3 -4 5 12 5 17 0 24
-2 18 -5z m5721 -44 c65 -49 80 -73 34 -55 -34 13 -98 68 -98 85 0 17 5 14 64
-30z m-5584 4 c39 -15 70 -30 70 -34 0 -7 -149 47 -159 57 -11 11 26 1 89 -23z
m-11 -99 c2 -2 2 -6 -1 -9 -8 -9 -58 6 -58 16 0 8 48 2 59 -7z m-239 -14 c0
-5 -4 -10 -10 -10 -5 0 -10 5 -10 10 0 6 5 10 10 10 6 0 10 -4 10 -10z m100
-75 c0 -10 -41 -25 -52 -19 -8 5 -5 10 8 15 22 9 44 11 44 4z m7549 -10 c-10
-9 -165 -35 -213 -35 -67 0 -51 11 37 26 73 12 184 18 176 9z m-1399 -105 c0
-5 0 -13 0 -17 0 -12 -52 -23 -77 -17 -30 8 -30 24 0 24 12 0 29 5 37 10 20
13 40 13 40 0z m1508 -103 c-26 -25 -75 -38 -139 -35 l-64 3 85 21 c105 27
137 30 118 11z m-5838 -67 c13 -8 13 -10 -2 -10 -9 0 -20 5 -23 10 -8 13 5 13
25 0z m3780 -35 c-19 -19 -39 -35 -44 -35 -12 1 59 70 71 70 4 0 -8 -16 -27
-35z"/>
<path d="M332 20258 c-14 -14 -16 -44 -3 -53 11 -6 31 26 31 49 0 19 -11 21
-28 4z"/>
<path d="M12850 18666 c0 -2 7 -7 16 -10 8 -3 12 -2 9 4 -6 10 -25 14 -25 6z"/>
<path d="M13097 18539 c7 -7 15 -10 18 -7 3 3 -2 9 -12 12 -14 6 -15 5 -6 -5z"/>
<path d="M13160 18506 c0 -2 7 -7 16 -10 8 -3 12 -2 9 4 -6 10 -25 14 -25 6z"/>
<path d="M13230 18466 c0 -2 7 -7 16 -10 8 -3 12 -2 9 4 -6 10 -25 14 -25 6z"/>
<path d="M13365 18380 c3 -5 11 -10 16 -10 6 0 7 5 4 10 -3 6 -11 10 -16 10
-6 0 -7 -4 -4 -10z"/>
<path d="M13480 18306 c0 -2 7 -7 16 -10 8 -3 12 -2 9 4 -6 10 -25 14 -25 6z"/>
<path d="M14000 17936 c0 -2 7 -7 16 -10 8 -3 12 -2 9 4 -6 10 -25 14 -25 6z"/>
<path d="M11423 17837 c-4 -8 -30 -17 -57 -21 -31 -4 -62 -16 -83 -34 -19 -15
-45 -35 -58 -46 -12 -10 -44 -21 -69 -23 -26 -3 -49 -10 -52 -14 -9 -15 -45
-10 -75 12 -18 13 -40 19 -61 17 l-31 -3 26 -25 c15 -14 27 -32 27 -41 0 -27
-27 -29 -53 -5 -32 30 -61 37 -99 24 -21 -7 -40 -8 -64 0 -30 9 -35 7 -49 -14
-8 -13 -24 -24 -35 -24 -11 0 -20 -4 -20 -9 0 -6 -15 -24 -32 -41 -30 -28 -38
-31 -80 -26 -46 5 -48 4 -48 -20 0 -16 13 -37 36 -58 40 -37 41 -66 3 -66 -12
0 -23 -8 -26 -20 -6 -23 -33 -27 -33 -5 0 23 -18 18 -45 -11 -35 -38 -106 -44
-160 -15 -26 14 -43 17 -49 11 -20 -20 -54 -10 -76 20 -35 50 -91 31 -71 -23
7 -17 7 -28 1 -32 -6 -4 -10 3 -10 13 0 15 -5 19 -20 15 -25 -7 -36 34 -21 78
8 24 7 37 -5 62 -13 23 -14 35 -5 48 15 25 0 31 -50 20 -56 -13 -72 -30 -78
-82 -1 -4 -10 -9 -21 -12 -17 -4 -20 -1 -18 21 l3 27 -78 0 c-44 0 -81 -3 -84
-7 -2 -5 -29 -8 -59 -8 -30 0 -62 -4 -72 -10 -49 -26 -91 -39 -132 -39 -25 0
-67 -7 -93 -16 -27 -9 -55 -14 -62 -12 -7 3 -25 -1 -39 -8 -15 -8 -44 -17 -64
-21 -43 -8 -72 -30 -72 -55 0 -10 -8 -24 -18 -31 -10 -7 -21 -21 -25 -30 -4
-11 -22 -19 -52 -24 -33 -4 -51 -13 -62 -30 -8 -13 -20 -24 -26 -24 -5 0 -25
-11 -44 -26 -18 -14 -33 -22 -33 -18 0 4 -8 -1 -19 -10 -10 -9 -22 -16 -27
-15 -5 1 -18 -2 -29 -6 -82 -33 -117 -44 -130 -39 -39 15 -95 -31 -68 -56 12
-11 63 -22 62 -13 -3 21 2 33 16 33 23 0 18 -24 -10 -50 -14 -13 -25 -32 -25
-42 0 -14 -5 -18 -18 -14 -10 4 -33 -1 -52 -10 -25 -13 -37 -14 -50 -6 -22 14
-60 4 -60 -15 0 -8 -8 -27 -19 -41 -10 -15 -22 -42 -26 -59 -3 -18 -10 -33
-13 -33 -4 0 -26 -18 -50 -40 -48 -45 -52 -47 -52 -24 0 12 -9 15 -35 13 -19
-2 -40 2 -47 9 -15 15 -35 16 -40 1 -5 -14 -38 0 -38 17 0 23 -19 16 -32 -10
-6 -14 -20 -26 -32 -28 -11 -2 -25 -13 -31 -26 -5 -12 -15 -20 -22 -18 -6 3
-14 0 -17 -7 -5 -9 -7 -9 -12 1 -10 21 -22 13 -29 -18 -4 -16 -13 -30 -20 -30
-7 0 -16 -13 -20 -29 -4 -18 -14 -31 -28 -35 -32 -8 -35 -8 -40 12 -4 16 -5
16 -6 0 -1 -11 -9 -18 -21 -18 -17 0 -20 -7 -20 -45 0 -25 -4 -45 -10 -45 -5
0 -10 6 -10 13 0 16 -41 37 -70 37 -11 0 -20 4 -20 9 0 5 -7 12 -16 15 -11 4
-14 1 -9 -13 4 -14 -1 -23 -22 -33 -36 -17 -63 -12 -63 13 0 24 -38 26 -46 2
-22 -67 -51 -98 -86 -94 -3 0 -25 -20 -48 -46 l-43 -45 6 -67 c4 -36 10 -77
14 -91 6 -23 5 -24 -9 -9 -9 8 -25 33 -36 55 -11 22 -27 46 -35 52 -18 15 -51
20 -54 7 -2 -5 2 -10 7 -10 6 0 10 -3 10 -7 0 -5 0 -13 0 -19 0 -5 -4 -8 -9
-5 -5 4 -20 2 -33 -3 -12 -6 -17 -10 -10 -10 6 -1 12 -8 12 -17 0 -8 -4 -12
-10 -9 -5 3 -10 0 -10 -8 0 -8 -11 -25 -24 -38 -19 -19 -22 -29 -18 -66 l5
-44 -47 6 c-56 6 -77 -3 -106 -50 -16 -27 -27 -34 -41 -30 -33 11 -129 -99
-129 -148 0 -13 -9 -35 -20 -48 -11 -13 -24 -29 -29 -35 -5 -6 -19 -30 -30
-53 -12 -22 -26 -41 -31 -41 -5 0 -10 -12 -12 -27 -3 -29 -18 -37 -91 -48 -29
-5 -43 -14 -57 -38 -22 -36 -26 -67 -9 -67 7 0 18 8 25 18 12 16 13 16 14 0 0
-21 -26 -48 -48 -49 -41 -3 -49 -5 -75 -25 -15 -12 -27 -28 -27 -36 0 -19 -52
-98 -84 -127 -25 -23 -56 -74 -56 -92 0 -12 -43 -55 -62 -62 -10 -3 -15 -12
-12 -20 3 -8 -2 -21 -10 -30 -9 -9 -16 -20 -16 -25 0 -18 -71 -102 -87 -102
-12 0 -14 -7 -10 -36 7 -44 14 -51 29 -36 7 7 25 12 40 12 32 0 39 -28 12 -51
-8 -7 -24 -29 -34 -49 -10 -20 -26 -43 -35 -50 -15 -12 -19 -12 -30 3 -6 9
-15 14 -19 10 -4 -4 -18 6 -31 22 -25 31 -32 69 -15 80 15 9 12 57 -5 79 -8
11 -15 32 -15 47 0 32 -9 59 -19 59 -20 0 -50 -83 -62 -170 -7 -52 -23 -121
-36 -152 -13 -32 -24 -70 -25 -85 -3 -28 -29 -63 -48 -63 -6 0 -16 -12 -22
-27 -12 -28 -12 -28 -16 -4 -2 13 1 28 7 34 6 6 11 26 11 44 0 42 -24 44 -39
3 -16 -47 -23 -36 -18 29 6 64 13 85 28 76 14 -9 11 16 -6 48 -8 15 -12 34 -9
41 3 8 1 17 -5 20 -5 3 -12 -8 -16 -26 -4 -18 -16 -48 -26 -66 -10 -18 -19
-44 -19 -58 0 -13 -6 -33 -12 -44 -10 -15 -10 -27 -1 -50 12 -33 3 -86 -23
-124 -9 -15 -15 -76 -18 -219 -3 -108 -3 -197 0 -197 3 0 25 20 50 45 26 27
52 45 66 45 15 0 31 12 47 36 19 27 30 34 49 32 24 -3 27 2 39 60 15 64 18 67
70 63 14 -2 24 5 28 18 3 12 10 21 14 21 5 0 14 13 21 29 13 32 45 47 58 27
11 -19 43 -28 58 -15 22 18 34 2 22 -31 -5 -17 -13 -30 -18 -30 -4 0 -35 -27
-69 -61 -50 -50 -59 -64 -51 -79 7 -13 6 -20 -3 -23 -9 -4 -9 -6 1 -6 26 -2
11 -18 -18 -19 -38 -1 -50 -9 -50 -33 0 -21 16 -26 23 -6 8 18 25 -11 32 -53
4 -19 11 -44 18 -55 12 -22 11 -213 -3 -230 -24 -32 -13 -173 18 -232 7 -12
12 -37 12 -57 0 -19 4 -37 9 -40 25 -16 16 -109 -10 -104 -7 2 -18 -8 -25 -21
-11 -21 -10 -27 3 -36 13 -10 14 -13 3 -20 -9 -5 -15 -4 -18 3 -2 7 -10 12
-18 12 -20 0 -46 64 -38 94 4 19 -5 35 -50 82 -56 57 -56 58 -57 123 -3 104
-3 106 -19 106 -8 0 -19 -16 -25 -39 -6 -22 -17 -42 -23 -44 -8 -2 -8 -11 -1
-28 14 -38 12 -43 -27 -66 l-36 -21 4 -76 c3 -43 10 -77 17 -79 14 -5 15 -49
1 -57 -5 -3 -10 1 -10 9 0 21 -16 21 -24 0 -9 -24 -7 -72 4 -79 5 -3 7 -19 4
-34 -4 -16 -1 -32 5 -35 6 -4 11 -22 11 -40 0 -17 4 -36 9 -41 13 -15 35 -105
27 -112 -4 -4 -16 -1 -27 6 -12 7 -24 10 -27 6 -16 -16 2 -195 20 -206 10 -7
9 -9 -4 -9 -21 0 -21 2 -6 -41 20 -59 62 -77 78 -34 10 27 28 33 34 13 15 -58
22 -97 16 -93 -4 3 -13 -8 -19 -23 -8 -21 -8 -36 4 -67 l14 -40 1 42 c0 33 3
41 14 37 27 -10 30 -60 6 -92 l-22 -29 33 -32 c23 -23 29 -35 20 -40 -9 -6 -8
-16 5 -44 10 -21 21 -37 26 -37 4 0 8 -9 8 -21 0 -30 41 -96 68 -109 31 -14
32 -13 33 13 l0 22 16 -22 c19 -28 43 -30 43 -3 0 11 5 20 11 20 6 0 9 -9 6
-20 -5 -18 7 -36 25 -40 39 -6 68 -26 78 -51 7 -16 20 -29 29 -29 10 0 30 -13
47 -29 16 -16 38 -30 48 -32 10 -2 24 -13 30 -24 6 -11 12 -22 13 -24 2 -2 19
13 38 35 29 33 34 47 35 89 0 64 9 95 25 95 8 0 11 8 8 20 -3 11 -10 20 -17
20 -6 0 -4 5 4 11 11 8 12 12 3 16 -17 6 -16 43 2 67 12 15 17 17 29 7 8 -7
26 -11 39 -9 47 6 102 -53 63 -68 -11 -4 -15 -21 -14 -62 1 -32 -2 -91 -6
-132 -13 -134 -13 -165 -4 -177 12 -14 -5 -25 -26 -17 -21 8 -41 44 -30 53 15
10 34 50 34 69 0 23 -50 91 -67 92 -17 0 -36 -77 -30 -118 4 -21 2 -35 -6 -38
-7 -2 -14 -19 -15 -36 -1 -17 -10 -46 -18 -64 -15 -31 -12 -72 6 -84 5 -3 22
-34 38 -70 17 -36 44 -80 62 -99 26 -28 36 -32 60 -27 22 4 30 2 30 -9 0 -8 5
-15 10 -15 6 0 10 -9 10 -21 0 -11 5 -29 10 -40 7 -12 7 -19 1 -19 -16 0 -1
-31 38 -78 30 -36 40 -42 63 -37 23 5 34 -1 67 -33 34 -34 46 -40 76 -37 25 3
35 0 35 -11 0 -8 7 -17 15 -20 8 -4 15 -12 15 -20 0 -7 9 -19 19 -27 11 -7 30
-31 43 -53 48 -82 70 -104 104 -104 36 0 58 -21 50 -47 -8 -26 52 -97 84 -100
14 -1 19 1 13 3 -7 3 -13 12 -13 21 0 19 38 8 63 -18 22 -23 33 -24 41 -3 4
10 0 17 -11 20 -19 5 -46 51 -38 64 3 4 5 30 6 58 3 63 15 88 24 46 13 -56 18
-69 29 -76 6 -4 12 -12 12 -18 1 -5 2 -14 3 -20 0 -5 14 -22 31 -36 16 -15 27
-31 24 -36 -9 -13 22 -44 75 -75 25 -14 51 -32 56 -39 6 -6 24 -14 42 -17 27
-5 33 -3 39 16 4 12 6 36 5 54 -2 36 19 48 64 37 44 -11 66 18 63 86 -2 66 19
120 56 140 22 11 29 11 51 -4 14 -9 25 -21 25 -27 0 -6 5 -7 10 -4 6 3 10 1
10 -5 0 -7 8 -9 19 -5 11 3 21 2 24 -2 9 -16 -32 -92 -62 -114 -19 -14 -31
-32 -31 -46 0 -14 -6 -23 -15 -23 -25 0 -17 -39 16 -71 22 -22 28 -33 20 -42
-5 -7 -9 -42 -8 -77 2 -60 4 -66 30 -78 15 -7 27 -17 27 -21 0 -19 44 -19 71
0 30 21 49 25 49 9 0 -5 7 -10 15 -10 8 0 15 4 15 8 0 15 -22 30 -36 25 -8 -3
-26 14 -45 41 -18 25 -39 46 -46 46 -13 0 -33 31 -33 52 0 7 9 19 20 26 23 14
60 0 92 -35 30 -33 42 -38 83 -38 36 0 40 -3 43 -27 3 -28 43 -68 67 -68 7 0
18 14 24 30 12 35 14 35 45 15 13 -9 37 -14 54 -13 20 1 40 -5 54 -18 56 -50
153 -91 175 -73 7 7 26 9 43 5 26 -5 32 -2 42 20 11 23 13 24 19 7 7 -16 8
-16 8 0 1 17 21 25 21 8 0 -9 55 -41 71 -41 15 0 32 44 33 82 1 43 16 51 32
19 21 -40 34 -48 34 -20 0 14 6 34 14 44 8 11 11 26 8 35 -5 13 -4 13 12 1 11
-9 15 -23 12 -35 -3 -11 0 -26 6 -33 12 -15 78 -18 78 -4 0 13 64 44 68 32 3
-10 35 -5 70 12 18 9 22 18 22 59 0 27 -5 59 -11 70 -8 15 -8 19 0 14 6 -4 11
-2 11 4 0 6 20 -3 44 -20 25 -16 49 -30 53 -30 5 0 15 16 22 35 14 41 47 47
76 15 10 -11 23 -20 29 -20 6 0 34 -25 62 -56 42 -48 53 -55 68 -47 13 7 28 7
48 -1 25 -9 31 -8 39 7 13 23 61 22 82 -1 18 -19 23 -52 9 -52 -17 0 -8 -29
10 -33 10 -3 18 -1 18 4 0 5 14 9 31 9 24 0 30 4 25 16 -5 12 -1 14 17 8 28
-8 26 -6 31 -40 13 -95 37 -160 68 -182 10 -7 18 -21 18 -32 0 -14 10 -20 43
-25 43 -8 78 -22 88 -36 3 -5 20 -5 37 1 18 5 42 7 54 5 12 -3 30 3 40 12 10
9 18 12 18 7 0 -5 14 -9 31 -10 16 -1 41 -7 54 -14 20 -10 33 -10 72 0 26 7
54 17 60 23 7 5 20 7 28 3 8 -3 15 -1 15 4 0 6 9 10 20 10 11 0 20 3 20 8 0
10 82 2 97 -10 7 -6 13 -4 15 4 4 10 13 11 45 2 43 -11 97 0 112 25 7 10 9 9
14 -3 4 -9 15 -16 26 -16 11 0 26 -6 33 -12 20 -20 82 -40 86 -28 2 5 12 10
22 10 10 0 31 6 47 14 67 33 85 34 137 3 30 -17 57 -26 70 -23 12 3 35 -1 50
-10 41 -21 168 -24 246 -7 36 9 112 17 170 20 156 6 156 6 186 33 17 16 28 21
31 13 11 -31 149 22 244 94 32 24 62 43 68 43 6 0 11 5 11 10 0 6 6 10 14 10
7 0 27 7 42 15 16 8 36 15 45 15 9 0 22 7 29 15 9 11 16 13 24 5 15 -15 23
-12 29 10 3 13 17 22 36 26 16 4 38 15 48 25 31 33 37 39 65 59 20 16 28 31
30 63 3 38 7 44 41 60 27 13 39 25 43 47 4 16 14 36 24 45 16 14 18 14 23 0 8
-18 37 -20 37 -2 0 14 32 44 73 70 15 10 27 24 27 31 0 18 27 31 73 34 9 1 17
9 17 17 0 10 11 15 35 15 32 0 35 -2 35 -30 0 -33 17 -33 38 1 10 15 10 24 2
34 -15 18 -4 55 40 140 41 78 58 174 39 222 -17 44 -37 162 -32 183 7 28 19
25 31 -9 6 -16 18 -38 28 -50 l19 -21 52 56 c44 46 56 54 68 44 13 -11 63 -4
51 8 -3 3 2 10 12 16 68 41 83 54 93 81 26 69 34 85 41 85 5 0 8 9 8 20 0 11
4 20 9 20 5 0 12 15 15 34 7 37 29 62 46 51 5 -3 10 -13 10 -21 0 -8 9 -14 20
-14 12 0 20 6 18 13 -4 19 21 57 38 57 8 0 20 14 26 31 7 22 14 27 21 20 6 -6
19 -11 29 -11 14 0 17 8 16 53 -1 36 5 64 20 92 12 22 22 45 22 52 0 7 11 23
25 35 13 11 22 25 19 30 -3 4 -2 13 2 19 5 8 9 8 14 -1 6 -9 10 -6 15 9 9 29
31 21 27 -10 -2 -22 -1 -22 9 -6 6 10 8 29 5 42 -4 14 0 29 7 37 8 7 12 19 9
26 -6 19 48 66 61 53 19 -19 28 -12 25 17 -3 31 29 132 43 132 5 0 9 14 9 30
0 17 7 41 15 54 8 12 18 56 21 97 8 82 21 133 25 89 1 -14 1 -28 1 -32 -3 -16
29 -15 52 3 13 11 28 19 33 18 24 -4 31 6 41 57 8 37 8 62 2 74 -14 26 14 99
48 127 35 28 72 30 79 3 5 -19 33 -29 33 -11 0 4 17 30 39 57 21 27 46 66 54
86 9 21 29 52 46 70 16 18 33 44 36 58 14 63 65 121 65 75 0 -9 7 -18 15 -21
8 -4 15 -18 15 -34 0 -15 7 -33 16 -41 8 -7 22 -26 31 -43 9 -16 22 -36 29
-44 8 -7 17 -25 20 -40 4 -15 18 -39 32 -54 21 -22 28 -25 40 -16 11 10 13 28
8 86 -4 41 -13 93 -20 116 -13 39 -28 124 -27 156 2 68 11 101 35 126 16 18
24 35 20 46 -3 11 0 18 7 18 18 0 0 15 -19 16 -49 3 -53 5 -51 22 2 18 -4 37
-26 87 -22 49 -24 62 -13 73 8 8 8 15 0 25 -10 12 -13 61 -9 193 1 30 -5 47
-23 66 -44 47 -65 82 -61 107 2 18 -1 22 -13 18 -11 -5 -16 -1 -16 13 0 13 5
18 15 14 17 -7 17 -8 19 68 1 38 8 63 19 76 9 10 17 26 17 35 0 9 5 19 10 22
6 3 10 16 10 29 0 12 5 27 11 33 9 9 8 11 -4 9 -9 -1 -38 -22 -64 -48 -70 -64
-130 -83 -268 -83 -104 0 -113 2 -171 32 -117 61 -209 196 -206 304 1 32 -4
63 -11 74 -10 13 -11 31 -5 69 4 28 5 59 2 69 -7 21 -43 22 -70 2 -39 -30 -58
-19 -103 59 -59 104 -85 201 -77 291 4 38 12 87 18 108 9 30 9 60 -1 130 -16
114 -24 135 -55 147 -24 9 -24 10 -20 123 l4 114 -33 35 c-18 20 -43 38 -54
42 -20 6 -37 39 -25 50 10 11 43 6 66 -9 21 -14 24 -13 40 3 21 24 14 43 -25
66 -29 17 -31 17 -65 -3 -53 -31 -94 -23 -94 19 0 15 68 38 128 43 24 2 31 27
7 27 -19 0 -19 29 0 53 15 21 11 37 -21 85 -13 18 -24 37 -26 42 -2 6 -14 12
-26 15 -13 2 -43 21 -66 42 -78 69 -109 94 -139 110 -44 22 -64 44 -72 76 -8
30 -37 47 -80 47 -12 0 -26 7 -29 15 -8 21 -83 55 -123 55 -22 0 -37 7 -45 20
-7 11 -20 20 -29 20 -13 0 -16 9 -14 44 3 41 2 44 -21 42 -16 -1 -22 -6 -19
-15 5 -12 3 -12 -12 0 -15 12 -16 12 -10 -4 4 -10 7 -25 7 -33 0 -8 9 -14 20
-14 13 0 20 -7 20 -20 0 -11 5 -20 10 -20 6 0 1 -9 -10 -20 -11 -11 -20 -26
-20 -32 0 -10 -2 -10 -9 0 -6 9 -17 -7 -36 -52 -25 -59 -113 -166 -137 -166
-4 0 17 31 45 70 152 201 104 340 -148 431 -49 18 -50 17 -59 -2 -8 -16 -16
-19 -37 -15 -18 3 -29 0 -32 -8 -4 -10 -19 -7 -64 15 -56 28 -91 33 -104 16
-11 -15 -47 15 -42 33 5 20 -19 40 -25 22 -2 -7 -10 -12 -17 -12 -7 0 -15 -7
-19 -15 -3 -8 -14 -15 -24 -15 -11 0 -25 7 -32 15 -7 8 -23 15 -36 15 -18 0
-28 9 -39 36 -8 19 -23 46 -34 59 -16 21 -21 23 -31 10 -6 -8 -9 -23 -5 -34
11 -35 -16 -34 -51 3 -19 20 -34 40 -34 45 0 5 -6 9 -12 8 -40 -1 -48 4 -48
32 0 16 -7 34 -15 41 -25 21 -17 37 31 60 54 25 74 21 74 -15 0 -22 4 -26 22
-23 26 4 40 43 26 71 -7 13 -17 18 -34 14 -16 -3 -33 4 -51 19 -28 24 -41 64
-20 64 6 0 4 5 -5 11 -10 5 -18 17 -18 24 0 8 -6 15 -14 15 -8 0 -16 5 -18 12
-3 8 -12 8 -38 -1 -22 -7 -36 -8 -38 -2 -2 5 -10 7 -18 4 -10 -4 -17 2 -21 15
-2 11 -14 23 -25 25 -11 3 -17 10 -13 17 3 6 3 10 -2 9 -37 -6 -45 1 -39 36 6
28 2 40 -14 57 -21 22 -22 22 -35 4 -11 -15 -17 -16 -28 -8 -8 7 -17 9 -20 5
-4 -3 -7 -1 -7 5 0 7 5 12 12 12 9 0 9 3 0 12 -7 7 -12 20 -12 30 0 13 -8 18
-25 18 -14 0 -25 4 -25 9 0 5 -15 12 -33 15 -19 3 -43 17 -55 31 -24 28 -47
32 -59 12z m-2508 -767 c3 -5 1 -10 -4 -10 -6 0 -11 5 -11 10 0 6 2 10 4 10 3
0 8 -4 11 -10z m60 -10 c-3 -5 -13 -10 -21 -10 -8 0 -12 5 -9 10 3 6 13 10 21
10 8 0 12 -4 9 -10z m3085 -35 c0 -8 -4 -15 -10 -15 -5 0 -10 7 -10 15 0 8 5
15 10 15 6 0 10 -7 10 -15z m-3603 -137 c-3 -8 -6 -5 -6 6 -1 11 2 17 5 13 3
-3 4 -12 1 -19z m-1274 -874 c-4 -12 -8 -13 -14 -3 -9 15 -2 32 11 24 5 -3 6
-13 3 -21z m-563 -474 c0 -5 -4 -10 -10 -10 -5 0 -10 5 -10 10 0 6 5 10 10 10
6 0 10 -4 10 -10z m1450 -511 c36 -30 57 -74 39 -85 -5 -3 -9 -16 -9 -29 0
-33 -10 -55 -26 -55 -7 0 -17 -7 -22 -16 -8 -15 -16 -15 -76 -4 -58 11 -69 16
-78 39 -7 20 -6 33 7 57 22 42 97 124 113 124 7 0 30 -14 52 -31z m-1802 -446
c-5 -25 -28 -28 -28 -4 0 12 6 21 16 21 9 0 14 -7 12 -17z m6072 9 c0 -14 -49
-56 -57 -49 -3 4 4 18 17 32 24 25 40 32 40 17z m-6517 -174 c-2 -52 -3 -54
-13 -36 -10 17 -2 81 9 74 3 -2 5 -19 4 -38z m367 -8 c0 -5 -5 -10 -11 -10 -5
0 -7 5 -4 10 3 6 8 10 11 10 2 0 4 -4 4 -10z m7490 -25 c0 -8 -4 -15 -10 -15
-5 0 -7 7 -4 15 4 8 8 15 10 15 2 0 4 -7 4 -15z m-7857 -125 c3 -11 1 -20 -4
-20 -5 0 -9 9 -9 20 0 11 2 20 4 20 2 0 6 -9 9 -20z m8084 -1002 c-3 -8 -6 -5
-6 6 -1 11 2 17 5 13 3 -3 4 -12 1 -19z m-8117 -459 c0 -16 -4 -29 -9 -29 -11
0 -24 48 -16 61 11 17 25 -1 25 -32z m8269 9 c15 -46 20 -97 10 -103 -4 -3 -5
-28 -2 -56 6 -50 5 -51 -17 -44 -20 6 -22 5 -18 -19 6 -28 -3 -34 -21 -12 -8
10 -8 16 3 25 18 15 27 49 15 57 -18 11 -7 184 11 184 5 0 13 -15 19 -32z
m-8292 -130 c-3 -7 -5 -2 -5 12 0 14 2 19 5 13 2 -7 2 -19 0 -25z m925 -515
c10 -9 18 -24 18 -34 0 -23 -27 -49 -51 -49 -16 0 -19 7 -19 50 0 55 16 65 52
33z m7054 -160 c-11 -11 -19 6 -11 24 8 17 8 17 12 0 3 -10 2 -21 -1 -24z
m-7236 -305 c0 -10 -4 -18 -10 -18 -5 0 -10 15 -10 33 0 24 3 28 10 17 5 -8
10 -23 10 -32z m5889 -18 c19 -27 20 -32 7 -45 -20 -20 -33 -19 -46 4 -14 28
-13 71 3 71 7 0 23 -14 36 -30z m74 -71 c20 -37 22 -49 4 -49 -24 0 -49 37
-42 59 9 28 17 26 38 -10z m-5363 -470 c0 -5 -4 -9 -10 -9 -5 0 -10 7 -10 16
0 8 5 12 10 9 6 -3 10 -10 10 -16z m143 -49 c9 -16 12 -32 7 -35 -5 -3 -16 9
-24 26 -19 37 -19 39 -7 39 5 0 16 -13 24 -30z m7 -160 c0 -11 5 -20 10 -20 6
0 10 -4 10 -10 0 -5 -9 -10 -20 -10 -11 0 -20 6 -20 14 0 8 -3 21 -6 30 -4 11
-1 16 10 16 9 0 16 -8 16 -20z m5483 -28 c-3 -12 -9 -22 -14 -22 -12 0 -11 7
2 32 13 25 20 19 12 -10z"/>
<path d="M12035 17230 c3 -5 10 -10 16 -10 5 0 9 5 9 10 0 6 -7 10 -16 10 -8
0 -12 -4 -9 -10z"/>
<path d="M6011 15526 c-11 -13 -11 -20 -3 -28 15 -15 24 -5 20 23 -3 21 -4 21
-17 5z"/>
<path d="M5993 15402 c-6 -4 -13 -18 -14 -32 -4 -22 -10 -25 -47 -28 -36 -3
-45 -8 -53 -30 -12 -31 -4 -73 14 -69 8 1 13 -17 15 -58 3 -54 -1 -66 -29
-108 -27 -42 -30 -52 -20 -73 l11 -25 43 46 c24 25 50 63 57 85 14 42 24 50
34 24 3 -8 2 -12 -4 -9 -6 3 -10 1 -10 -4 0 -24 48 -10 112 32 l27 18 -25 36
c-17 26 -24 51 -25 89 -2 79 -2 79 -24 79 -14 0 -21 -8 -23 -27 -2 -16 -8 -28
-14 -28 -7 0 -9 15 -5 40 5 41 -1 54 -20 42z m37 -151 c7 -14 5 -30 -7 -58
l-16 -38 -8 28 c-4 16 -6 35 -3 43 2 8 6 21 9 29 6 20 12 19 25 -4z"/>
<path d="M6156 15173 c-3 -4 -6 -15 -6 -26 0 -17 -13 -37 -61 -95 -18 -22 -3
-25 34 -7 45 21 81 70 73 100 -6 23 -29 39 -40 28z"/>
<path d="M5775 15049 c-4 -6 -3 -15 3 -21 6 -6 11 -4 15 6 7 18 -9 31 -18 15z"/>
<path d="M5773 14978 c-21 -27 -43 -78 -48 -112 -3 -31 -1 -36 15 -36 16 0 20
7 20 33 0 18 4 37 8 43 17 19 30 61 23 73 -6 9 -10 9 -18 -1z"/>
<path d="M5842 14928 c-7 -7 -12 -20 -12 -30 0 -10 -4 -18 -10 -18 -12 0 -32
-75 -27 -103 3 -20 5 -19 15 8 7 17 24 54 39 82 18 36 24 56 17 63 -7 7 -14 6
-22 -2z"/>
<path d="M14849 14832 c-45 -46 -63 -122 -31 -122 13 0 22 12 31 43 7 23 16
54 21 70 9 31 3 34 -21 9z"/>
<path d="M14060 14759 c0 -5 5 -7 10 -4 6 3 10 8 10 11 0 2 -4 4 -10 4 -5 0
-10 -5 -10 -11z"/>
<path d="M5776 14741 c-4 -7 -5 -15 -2 -18 9 -9 19 4 14 18 -4 11 -6 11 -12 0z"/>
<path d="M14772 14656 c-7 -16 -8 -26 -2 -26 6 0 10 -8 11 -17 0 -14 2 -15 6
-3 3 8 9 17 14 20 4 3 2 15 -5 28 l-12 23 -12 -25z"/>
<path d="M14172 14640 c0 -14 2 -19 5 -12 2 6 2 18 0 25 -3 6 -5 1 -5 -13z"/>
<path d="M5907 13940 c-3 -11 0 -20 6 -20 6 0 3 -6 -6 -12 -21 -16 -12 -60 12
-56 12 3 16 15 15 53 0 50 -17 72 -27 35z"/>
<path d="M14880 13869 c0 -11 5 -17 10 -14 6 3 10 13 10 21 0 8 -4 14 -10 14
-5 0 -10 -9 -10 -21z"/>
<path d="M5800 13809 c0 -5 5 -7 10 -4 6 3 10 8 10 11 0 2 -4 4 -10 4 -5 0
-10 -5 -10 -11z"/>
<path d="M14877 13793 c-4 -3 -7 -13 -7 -22 1 -13 3 -13 11 2 11 19 8 33 -4
20z"/>
<path d="M5768 12553 c7 -3 16 -2 19 1 4 3 -2 6 -13 5 -11 0 -14 -3 -6 -6z"/>
<path d="M13870 12197 c-33 -49 -33 -49 -12 -38 12 6 24 20 27 32 10 29 2 32
-15 6z"/>
<path d="M8792 10385 c6 -14 15 -25 20 -25 15 0 8 38 -8 44 -24 9 -24 8 -12
-19z"/>
<path d="M4015 5000 c3 -5 8 -10 11 -10 2 0 4 5 4 10 0 6 -5 10 -11 10 -5 0
-7 -4 -4 -10z"/>
<path d="M5298 4593 c7 -3 16 -2 19 1 4 3 -2 6 -13 5 -11 0 -14 -3 -6 -6z"/>
<path d="M6300 4231 c0 -6 5 -13 10 -16 6 -3 10 1 10 9 0 9 -4 16 -10 16 -5 0
-10 -4 -10 -9z"/>
<path d="M7453 3863 c-18 -7 -16 -23 2 -23 8 0 15 7 15 15 0 8 -1 15 -2 14 -2
0 -9 -3 -15 -6z"/>
<path d="M7675 3769 c-4 -6 -5 -12 -2 -15 2 -3 7 2 10 11 7 17 1 20 -8 4z"/>
<path d="M8146 3605 c-3 -8 -1 -15 4 -15 6 0 10 7 10 15 0 8 -2 15 -4 15 -2 0
-6 -7 -10 -15z"/>
<path d="M8900 3559 c0 -5 5 -7 10 -4 6 3 10 8 10 11 0 2 -4 4 -10 4 -5 0 -10
-5 -10 -11z"/>
<path d="M17290 5585 c0 -8 7 -15 15 -15 8 0 15 7 15 15 0 8 -7 15 -15 15 -8
0 -15 -7 -15 -15z"/>
<path d="M16340 5129 c0 -6 -7 -8 -16 -5 -8 3 -12 2 -9 -4 10 -15 35 -12 35 5
0 8 -2 15 -5 15 -3 0 -5 -5 -5 -11z"/>
<path d="M14730 4333 c0 -15 -2 -16 -10 -3 -8 12 -10 9 -10 -12 0 -24 3 -26
23 -19 26 10 37 51 13 51 -9 0 -16 -8 -16 -17z"/>
<path d="M14580 4255 c0 -8 4 -15 10 -15 5 0 7 7 4 15 -4 8 -8 15 -10 15 -2 0
-4 -7 -4 -15z"/>
<path d="M14493 4192 c-8 -5 -9 -13 -3 -22 7 -12 12 -12 22 -2 14 14 -1 35
-19 24z"/>
<path d="M13461 3694 c0 -11 3 -14 6 -6 3 7 2 16 -1 19 -3 4 -6 -2 -5 -13z"/>
<path d="M12570 3349 c0 -5 5 -7 10 -4 6 3 10 8 10 11 0 2 -4 4 -10 4 -5 0
-10 -5 -10 -11z"/>
<path d="M12370 3245 c7 -8 16 -15 21 -15 5 0 9 7 9 15 0 9 -9 15 -21 15 -18
0 -19 -2 -9 -15z"/>
</g>
</svg>
